<svg width="196" height="196" viewBox="0 0 196 196" fill="none" xmlns="http://www.w3.org/2000/svg">
<circle cx="97.5" cy="98.5" r="38.5" stroke="#A379F7" stroke-width="2"/>
<mask id="path-2-outside-1_224_16" maskUnits="userSpaceOnUse" x="74" y="78" width="49" height="37" fill="black">
<rect fill="white" x="74" y="78" width="49" height="37"/>
<path d="M80.96 110.32C80.96 111.6 80.1733 112.24 78.6 112.24C77.0267 112.24 76.24 111.6 76.24 110.32V82.64C76.24 82.0267 76.4133 81.48 76.76 81C77.1067 80.4933 77.7733 80.24 78.76 80.24H92.36C93.32 80.24 93.8267 80.9067 93.88 82.24C93.9333 83.6 93.4267 84.28 92.36 84.28H80.96V110.32ZM91.2 95.48C91.2 95.9333 91.1067 96.3733 90.92 96.8C90.76 97.2 90.52 97.5467 90.2 97.84C89.9067 98.1333 89.56 98.3733 89.16 98.56C88.76 98.72 88.32 98.8 87.84 98.8C86.9333 98.8 86.16 98.48 85.52 97.84C84.88 97.2 84.56 96.4133 84.56 95.48C84.56 94.5467 84.88 93.76 85.52 93.12C86.16 92.48 86.9333 92.16 87.84 92.16C88.32 92.16 88.76 92.2533 89.16 92.44C89.56 92.6 89.9067 92.84 90.2 93.16C90.52 93.4533 90.76 93.8 90.92 94.2C91.1067 94.6 91.2 95.0267 91.2 95.48ZM115.151 80.72C115.551 80.24 116.005 80 116.511 80C117.071 80 117.645 80.2533 118.231 80.76C118.525 81.0533 118.765 81.3467 118.951 81.64C119.165 81.9333 119.271 82.2267 119.271 82.52C119.271 83 119.098 83.4133 118.751 83.76L113.391 90L102.951 102.28V110.32C102.951 111.6 102.151 112.24 100.551 112.24C98.9779 112.24 98.1913 111.6 98.1913 110.32V81.96C98.1913 80.68 98.9779 80.04 100.551 80.04C102.151 80.04 102.951 80.68 102.951 81.96V95.04L115.151 80.72ZM109.471 99.72C109.205 99.3467 109.071 98.8933 109.071 98.36C109.071 97.56 109.405 96.92 110.071 96.44H110.031C110.565 96.0667 111.098 95.88 111.631 95.88C112.138 95.88 112.565 96.1733 112.911 96.76L120.631 108.04L120.591 108C120.831 108.373 120.951 108.773 120.951 109.2C120.951 109.893 120.605 110.507 119.911 111.04H119.951C119.658 111.227 119.378 111.373 119.111 111.48C118.845 111.587 118.605 111.64 118.391 111.64C118.178 111.64 117.951 111.56 117.711 111.4C117.498 111.24 117.285 111.04 117.071 110.8L109.471 99.72Z"/>
</mask>
<path d="M80.96 110.32C80.96 111.6 80.1733 112.24 78.6 112.24C77.0267 112.24 76.24 111.6 76.24 110.32V82.64C76.24 82.0267 76.4133 81.48 76.76 81C77.1067 80.4933 77.7733 80.24 78.76 80.24H92.36C93.32 80.24 93.8267 80.9067 93.88 82.24C93.9333 83.6 93.4267 84.28 92.36 84.28H80.96V110.32ZM91.2 95.48C91.2 95.9333 91.1067 96.3733 90.92 96.8C90.76 97.2 90.52 97.5467 90.2 97.84C89.9067 98.1333 89.56 98.3733 89.16 98.56C88.76 98.72 88.32 98.8 87.84 98.8C86.9333 98.8 86.16 98.48 85.52 97.84C84.88 97.2 84.56 96.4133 84.56 95.48C84.56 94.5467 84.88 93.76 85.52 93.12C86.16 92.48 86.9333 92.16 87.84 92.16C88.32 92.16 88.76 92.2533 89.16 92.44C89.56 92.6 89.9067 92.84 90.2 93.16C90.52 93.4533 90.76 93.8 90.92 94.2C91.1067 94.6 91.2 95.0267 91.2 95.48ZM115.151 80.72C115.551 80.24 116.005 80 116.511 80C117.071 80 117.645 80.2533 118.231 80.76C118.525 81.0533 118.765 81.3467 118.951 81.64C119.165 81.9333 119.271 82.2267 119.271 82.52C119.271 83 119.098 83.4133 118.751 83.76L113.391 90L102.951 102.28V110.32C102.951 111.6 102.151 112.24 100.551 112.24C98.9779 112.24 98.1913 111.6 98.1913 110.32V81.96C98.1913 80.68 98.9779 80.04 100.551 80.04C102.151 80.04 102.951 80.68 102.951 81.96V95.04L115.151 80.72ZM109.471 99.72C109.205 99.3467 109.071 98.8933 109.071 98.36C109.071 97.56 109.405 96.92 110.071 96.44H110.031C110.565 96.0667 111.098 95.88 111.631 95.88C112.138 95.88 112.565 96.1733 112.911 96.76L120.631 108.04L120.591 108C120.831 108.373 120.951 108.773 120.951 109.2C120.951 109.893 120.605 110.507 119.911 111.04H119.951C119.658 111.227 119.378 111.373 119.111 111.48C118.845 111.587 118.605 111.64 118.391 111.64C118.178 111.64 117.951 111.56 117.711 111.4C117.498 111.24 117.285 111.04 117.071 110.8L109.471 99.72Z" fill="#272669"/>
<path d="M76.76 81L78.3814 82.171C78.3913 82.1572 78.401 82.1434 78.4106 82.1294L76.76 81ZM93.88 82.24L95.8785 82.1616L95.8784 82.1601L93.88 82.24ZM80.96 84.28V82.28C79.8554 82.28 78.96 83.1754 78.96 84.28H80.96ZM90.92 96.8L89.0877 95.9984C89.0792 96.0178 89.0709 96.0375 89.063 96.0572L90.92 96.8ZM90.2 97.84L88.8486 96.3657C88.8272 96.3853 88.8063 96.4053 88.7858 96.4258L90.2 97.84ZM89.16 98.56L89.9028 100.417C89.9375 100.403 89.9719 100.388 90.0058 100.372L89.16 98.56ZM89.16 92.44L88.3142 94.2524C88.3481 94.2682 88.3825 94.2831 88.4172 94.297L89.16 92.44ZM90.2 93.16L88.7257 94.5114C88.7648 94.5542 88.8058 94.5952 88.8486 94.6343L90.2 93.16ZM90.92 94.2L89.063 94.9428C89.0769 94.9775 89.0918 95.0119 89.1076 95.0458L90.92 94.2ZM78.96 110.32C78.96 110.439 78.9414 110.451 78.9618 110.402C78.9723 110.376 78.9904 110.341 79.0185 110.303C79.0468 110.265 79.0781 110.233 79.1078 110.209C79.1681 110.16 79.1885 110.168 79.109 110.19C79.0253 110.212 78.8643 110.24 78.6 110.24V114.24C79.6063 114.24 80.7322 114.044 81.6322 113.311C82.6111 112.515 82.96 111.39 82.96 110.32H78.96ZM78.6 110.24C78.3357 110.24 78.1747 110.212 78.091 110.19C78.0115 110.168 78.032 110.16 78.0922 110.209C78.1219 110.233 78.1532 110.265 78.1815 110.303C78.2096 110.341 78.2277 110.376 78.2382 110.402C78.2586 110.451 78.24 110.439 78.24 110.32H74.24C74.24 111.39 74.5889 112.515 75.5678 113.311C76.4678 114.044 77.5937 114.24 78.6 114.24V110.24ZM78.24 110.32V82.64H74.24V110.32H78.24ZM78.24 82.64C78.24 82.431 78.2901 82.2973 78.3814 82.171L75.1386 79.829C74.5366 80.6627 74.24 81.6223 74.24 82.64H78.24ZM78.4106 82.1294C78.3699 82.1888 78.3227 82.2355 78.28 82.2675C78.2394 82.2979 78.2171 82.3046 78.2304 82.2996C78.268 82.2853 78.4229 82.24 78.76 82.24V78.24C77.5234 78.24 76.0123 78.5509 75.1094 79.8706L78.4106 82.1294ZM78.76 82.24H92.36V78.24H78.76V82.24ZM92.36 82.24C92.3685 82.24 92.289 82.241 92.1674 82.1857C92.0371 82.1265 91.9332 82.0364 91.8677 81.9502C91.8101 81.8744 91.8113 81.8406 91.8291 81.9043C91.8472 81.9691 91.8728 82.1004 91.8816 82.3199L95.8784 82.1601C95.8443 81.3076 95.6613 80.3311 95.0523 79.5298C94.3619 78.6214 93.3609 78.24 92.36 78.24V82.24ZM91.8815 82.3184C91.89 82.5351 91.8727 82.6535 91.8626 82.6986C91.8533 82.7405 91.8599 82.6774 91.9362 82.575C92.0212 82.461 92.1402 82.3691 92.2615 82.3166C92.3687 82.2703 92.4185 82.28 92.36 82.28V86.28C93.3446 86.28 94.4168 85.9407 95.1438 84.965C95.7927 84.0941 95.9129 83.0407 95.8785 82.1616L91.8815 82.3184ZM92.36 82.28H80.96V86.28H92.36V82.28ZM78.96 84.28V110.32H82.96V84.28H78.96ZM89.2 95.48C89.2 95.6498 89.1669 95.8174 89.0877 95.9984L92.7523 97.6016C93.0465 96.9293 93.2 96.2169 93.2 95.48H89.2ZM89.063 96.0572C89.0154 96.1763 88.949 96.2736 88.8486 96.3657L91.5514 99.3143C92.091 98.8198 92.5046 98.2237 92.777 97.5428L89.063 96.0572ZM88.7858 96.4258C88.6676 96.544 88.5166 96.6532 88.3142 96.7476L90.0058 100.372C90.6034 100.093 91.1457 99.7227 91.6142 99.2542L88.7858 96.4258ZM88.4172 96.703C88.279 96.7583 88.0946 96.8 87.84 96.8V100.8C88.5454 100.8 89.241 100.682 89.9028 100.417L88.4172 96.703ZM87.84 96.8C87.4627 96.8 87.1984 96.69 86.9342 96.4258L84.1058 99.2542C85.1216 100.27 86.4039 100.8 87.84 100.8V96.8ZM86.9342 96.4258C86.6822 96.1737 86.56 95.9014 86.56 95.48H82.56C82.56 96.9253 83.0778 98.2263 84.1058 99.2542L86.9342 96.4258ZM86.56 95.48C86.56 95.0586 86.6822 94.7863 86.9342 94.5342L84.1058 91.7058C83.0778 92.7337 82.56 94.0347 82.56 95.48H86.56ZM86.9342 94.5342C87.1984 94.27 87.4627 94.16 87.84 94.16V90.16C86.4039 90.16 85.1216 90.69 84.1058 91.7058L86.9342 94.5342ZM87.84 94.16C88.0537 94.16 88.2016 94.1998 88.3142 94.2524L90.0058 90.6276C89.3184 90.3069 88.5863 90.16 87.84 90.16V94.16ZM88.4172 94.297C88.5363 94.3446 88.6336 94.411 88.7257 94.5114L91.6743 91.8086C91.1798 91.269 90.5837 90.8554 89.9028 90.583L88.4172 94.297ZM88.8486 94.6343C88.949 94.7264 89.0154 94.8237 89.063 94.9428L92.777 93.4572C92.5046 92.7763 92.091 92.1802 91.5514 91.6857L88.8486 94.6343ZM89.1076 95.0458C89.1673 95.1737 89.2 95.3108 89.2 95.48H93.2C93.2 94.7425 93.046 94.0263 92.7324 93.3542L89.1076 95.0458ZM115.151 80.72L116.674 82.017C116.678 82.0115 116.683 82.0059 116.688 82.0004L115.151 80.72ZM118.231 80.76L119.645 79.3458C119.611 79.3113 119.575 79.2782 119.538 79.2464L118.231 80.76ZM118.951 81.64L117.264 82.7138C117.286 82.7487 117.309 82.7829 117.334 82.8163L118.951 81.64ZM118.751 83.76L117.337 82.3458C117.301 82.3815 117.267 82.4185 117.234 82.4568L118.751 83.76ZM113.391 90L111.874 88.6968L111.867 88.7046L113.391 90ZM102.951 102.28L101.427 100.985C101.12 101.346 100.951 101.805 100.951 102.28H102.951ZM102.951 95.04H100.951C100.951 95.878 101.474 96.6272 102.26 96.9168C103.047 97.2064 103.93 96.975 104.474 96.337L102.951 95.04ZM109.471 99.72L111.121 98.5887C111.113 98.5782 111.106 98.5678 111.099 98.5575L109.471 99.72ZM110.071 96.44L111.24 98.0631C111.944 97.5559 112.241 96.6522 111.975 95.8261C111.708 94.9999 110.939 94.44 110.071 94.44V96.44ZM110.031 96.44L108.884 94.8015C108.169 95.3021 107.861 96.2087 108.124 97.0413C108.386 97.8738 109.158 98.44 110.031 98.44V96.44ZM112.911 96.76L111.189 97.7775C111.212 97.8156 111.236 97.853 111.261 97.8896L112.911 96.76ZM120.631 108.04L119.217 109.454C119.947 110.185 121.114 110.239 121.909 109.579C122.703 108.919 122.865 107.763 122.282 106.91L120.631 108.04ZM120.591 108L122.005 106.586C121.283 105.863 120.132 105.802 119.336 106.443C118.541 107.084 118.356 108.222 118.909 109.082L120.591 108ZM119.911 111.04L118.692 109.455C118.013 109.977 117.742 110.873 118.018 111.684C118.294 112.495 119.055 113.04 119.911 113.04V111.04ZM119.951 111.04L121.025 112.727C121.775 112.25 122.12 111.335 121.871 110.481C121.623 109.627 120.84 109.04 119.951 109.04V111.04ZM119.111 111.48L119.854 113.337L119.854 113.337L119.111 111.48ZM117.711 111.4L116.511 113C116.541 113.022 116.571 113.044 116.602 113.064L117.711 111.4ZM117.071 110.8L115.422 111.931C115.469 112 115.521 112.066 115.576 112.129L117.071 110.8ZM116.688 82.0004C116.756 81.9179 116.775 81.9224 116.727 81.9476C116.703 81.9603 116.669 81.9747 116.626 81.9853C116.584 81.9959 116.544 82 116.511 82V78C115.275 78 114.298 78.6199 113.615 79.4396L116.688 82.0004ZM116.511 82C116.435 82 116.561 81.9604 116.924 82.2736L119.538 79.2464C118.728 78.5462 117.708 78 116.511 78V82ZM116.817 82.1742C117.026 82.3835 117.169 82.5644 117.264 82.7138L120.639 80.5662C120.36 80.1289 120.023 79.7232 119.645 79.3458L116.817 82.1742ZM117.334 82.8163C117.348 82.8356 117.332 82.8183 117.312 82.7635C117.29 82.7052 117.271 82.621 117.271 82.52H121.271C121.271 81.7127 120.971 81.0168 120.569 80.4637L117.334 82.8163ZM117.271 82.52C117.271 82.5135 117.274 82.4718 117.297 82.4165C117.32 82.3621 117.344 82.3388 117.337 82.3458L120.165 85.1742C120.878 84.4615 121.271 83.543 121.271 82.52H117.271ZM117.234 82.4568L111.874 88.6968L114.908 91.3032L120.268 85.0632L117.234 82.4568ZM111.867 88.7046L101.427 100.985L104.475 103.575L114.915 91.2954L111.867 88.7046ZM100.951 102.28V110.32H104.951V102.28H100.951ZM100.951 110.32C100.951 110.435 100.933 110.444 100.955 110.391C100.982 110.326 101.035 110.251 101.102 110.198C101.159 110.153 101.174 110.164 101.086 110.188C100.994 110.212 100.824 110.24 100.551 110.24V114.24C101.565 114.24 102.695 114.046 103.601 113.322C104.591 112.529 104.951 111.401 104.951 110.32H100.951ZM100.551 110.24C100.287 110.24 100.126 110.212 100.042 110.19C99.9628 110.168 99.9832 110.16 100.043 110.209C100.073 110.233 100.104 110.265 100.133 110.303C100.161 110.341 100.179 110.376 100.189 110.402C100.21 110.451 100.191 110.439 100.191 110.32H96.1913C96.1913 111.39 96.5402 112.515 97.5191 113.311C98.4191 114.044 99.5449 114.24 100.551 114.24V110.24ZM100.191 110.32V81.96H96.1913V110.32H100.191ZM100.191 81.96C100.191 81.8411 100.21 81.8285 100.189 81.8783C100.179 81.9039 100.161 81.9389 100.133 81.9771C100.104 82.0154 100.073 82.0473 100.043 82.0714C99.9832 82.1204 99.9628 82.1118 100.042 82.0903C100.126 82.0676 100.287 82.04 100.551 82.04V78.04C99.5449 78.04 98.4191 78.2364 97.5191 78.9686C96.5402 79.765 96.1913 80.8901 96.1913 81.96H100.191ZM100.551 82.04C100.824 82.04 100.994 82.068 101.086 82.0925C101.174 82.1159 101.159 82.1275 101.102 82.0817C101.035 82.0286 100.982 81.9544 100.955 81.8892C100.933 81.8362 100.951 81.8449 100.951 81.96H104.951C104.951 80.8786 104.591 79.7507 103.601 78.9583C102.695 78.234 101.565 78.04 100.551 78.04V82.04ZM100.951 81.96V95.04H104.951V81.96H100.951ZM104.474 96.337L116.674 82.017L113.629 79.423L101.429 93.743L104.474 96.337ZM111.099 98.5575C111.098 98.5563 111.097 98.5555 111.097 98.5539C111.096 98.5522 111.093 98.5467 111.09 98.5357C111.084 98.5141 111.071 98.4598 111.071 98.36H107.071C107.071 99.2402 107.297 100.117 107.844 100.882L111.099 98.5575ZM111.071 98.36C111.071 98.2461 111.093 98.2087 111.095 98.2039C111.099 98.1972 111.125 98.1459 111.24 98.0631L108.903 94.8169C107.731 95.6608 107.071 96.8966 107.071 98.36H111.071ZM110.071 94.44H110.031V98.44H110.071V94.44ZM111.178 98.0785C111.451 97.8878 111.591 97.88 111.631 97.88V93.88C110.604 93.88 109.679 94.2456 108.884 94.8015L111.178 98.0785ZM111.631 97.88C111.562 97.88 111.481 97.8695 111.397 97.843C111.313 97.8166 111.246 97.7808 111.198 97.7481C111.109 97.6864 111.119 97.659 111.189 97.7775L114.633 95.7425C114.067 94.7843 113.083 93.88 111.631 93.88V97.88ZM111.261 97.8896L118.981 109.17L122.282 106.91L114.562 95.6304L111.261 97.8896ZM122.045 106.626L122.005 106.586L119.177 109.414L119.217 109.454L122.045 106.626ZM118.909 109.082C118.95 109.146 118.951 109.173 118.951 109.2H122.951C122.951 108.374 122.712 107.601 122.274 106.918L118.909 109.082ZM118.951 109.2C118.951 109.205 118.951 109.2 118.953 109.192C118.955 109.184 118.957 109.185 118.95 109.196C118.936 109.22 118.876 109.313 118.692 109.455L121.131 112.625C122.174 111.822 122.951 110.674 122.951 109.2H118.951ZM119.911 113.04H119.951V109.04H119.911V113.04ZM118.877 109.353C118.668 109.486 118.499 109.571 118.368 109.623L119.854 113.337C120.257 113.176 120.648 112.967 121.025 112.727L118.877 109.353ZM118.368 109.623C118.344 109.633 118.326 109.639 118.314 109.643C118.302 109.647 118.296 109.648 118.297 109.648C118.299 109.647 118.332 109.64 118.391 109.64V113.64C118.93 113.64 119.428 113.507 119.854 113.337L118.368 109.623ZM118.391 109.64C118.689 109.64 118.845 109.752 118.821 109.736L116.602 113.064C117.058 113.368 117.666 113.64 118.391 113.64V109.64ZM118.911 109.8C118.824 109.735 118.708 109.631 118.566 109.471L115.576 112.129C115.861 112.449 116.172 112.745 116.511 113L118.911 109.8ZM118.721 109.669L111.121 98.5887L107.822 100.851L115.422 111.931L118.721 109.669Z" fill="#A379F7" mask="url(#path-2-outside-1_224_16)"/>
<rect x="30.8248" y="98" width="95" height="95" rx="17.5" transform="rotate(-45 30.8248 98)" stroke="#4675FB" stroke-width="5"/>
<rect x="-4.53051" y="98" width="145" height="145" rx="17.5" transform="rotate(-45 -4.53051 98)" fill="#3B1E79" fill-opacity="0.2" stroke="#4675FB" stroke-width="5"/>
</svg>
