<svg width="320" height="320" viewBox="0 0 320 320" fill="none" xmlns="http://www.w3.org/2000/svg">
<g filter="url(#filter0_d_144_7)">
<circle cx="159.448" cy="167.172" r="107.586" fill="black" shape-rendering="crispEdges"/>
<circle cx="159.448" cy="167.172" r="115.086" stroke="#65B5FF" stroke-opacity="0.63" stroke-width="15" stroke-linecap="round" stroke-linejoin="bevel" shape-rendering="crispEdges"/>
</g>
<mask id="path-3-outside-1_144_7" maskUnits="userSpaceOnUse" x="74.3203" y="100.421" width="72" height="116" fill="black">
<rect fill="white" x="74.3203" y="100.421" width="72" height="116"/>
<path d="M77.5305 213.421V104.33H142.942V116.049H90.7408V152.909H138.042V164.628H90.7408V213.421H77.5305Z"/>
</mask>
<path d="M77.5305 213.421V104.33H142.942V116.049H90.7408V152.909H138.042V164.628H90.7408V213.421H77.5305Z" fill="#66B5FF" fill-opacity="0.5"/>
<path d="M77.5305 213.421H74.5305L77.5305 216.421V213.421ZM77.5305 104.33V101.33L74.5305 104.33H77.5305ZM142.942 104.33H145.942L142.942 101.33V104.33ZM142.942 116.049V119.049L145.942 116.049H142.942ZM90.7408 116.049V113.049L87.7408 116.049H90.7408ZM90.7408 152.909H87.7408L90.7408 155.909V152.909ZM138.042 152.909H141.042L138.042 149.909V152.909ZM138.042 164.628V167.628L141.042 164.628H138.042ZM90.7408 164.628V161.628L87.7408 164.628H90.7408ZM90.7408 213.421V216.421L93.7408 213.421H90.7408ZM80.5305 213.421V104.33H74.5305V213.421H80.5305ZM77.5305 107.33H142.942V101.33H77.5305V107.33ZM139.942 104.33V116.049H145.942V104.33H139.942ZM142.942 113.049H90.7408V119.049H142.942V113.049ZM87.7408 116.049V152.909H93.7408V116.049H87.7408ZM90.7408 155.909H138.042V149.909H90.7408V155.909ZM135.042 152.909V164.628H141.042V152.909H135.042ZM138.042 161.628H90.7408V167.628H138.042V161.628ZM87.7408 164.628V213.421H93.7408V164.628H87.7408ZM90.7408 210.421H77.5305V216.421H90.7408V210.421Z" fill="#66B5FF" style="mix-blend-mode:lighten" mask="url(#path-3-outside-1_144_7)"/>
<mask id="path-5-outside-2_144_7" maskUnits="userSpaceOnUse" x="162.027" y="100.421" width="87" height="116" fill="black">
<rect fill="white" x="162.027" y="100.421" width="87" height="116"/>
<path d="M165.237 213.421V104.33H178.447V158.449H179.725L228.731 104.33H245.99L200.18 153.549L245.99 213.421H230.01L192.083 162.71L178.447 178.051V213.421H165.237Z"/>
</mask>
<path d="M165.237 213.421V104.33H178.447V158.449H179.725L228.731 104.33H245.99L200.18 153.549L245.99 213.421H230.01L192.083 162.71L178.447 178.051V213.421H165.237Z" fill="#65B5FF" fill-opacity="0.51"/>
<path d="M165.237 213.421H162.237L165.237 216.421V213.421ZM165.237 104.33V101.33L162.237 104.33H165.237ZM178.447 104.33H181.447L178.447 101.33V104.33ZM178.447 158.449H175.447L178.447 161.449V158.449ZM179.725 158.449V161.449L181.949 160.463L179.725 158.449ZM228.731 104.33V101.33L226.507 102.316L228.731 104.33ZM245.99 104.33L248.186 106.374L245.99 101.33V104.33ZM200.18 153.549L197.984 151.505L197.797 155.372L200.18 153.549ZM245.99 213.421V216.421L248.372 211.598L245.99 213.421ZM230.01 213.421L227.607 215.217L230.01 216.421V213.421ZM192.083 162.71L194.486 160.914L189.841 160.717L192.083 162.71ZM178.447 178.051L176.205 176.058L175.447 178.051H178.447ZM178.447 213.421V216.421L181.447 213.421H178.447ZM168.237 213.421V104.33H162.237V213.421H168.237ZM165.237 107.33H178.447V101.33H165.237V107.33ZM175.447 104.33V158.449H181.447V104.33H175.447ZM178.447 161.449H179.725V155.449H178.447V161.449ZM181.949 160.463L230.955 106.343L226.507 102.316L177.502 156.435L181.949 160.463ZM228.731 107.33H245.99V101.33H228.731V107.33ZM243.794 102.286L197.984 151.505L202.376 155.592L248.186 106.374L243.794 102.286ZM197.797 155.372L243.607 215.244L248.372 211.598L202.563 151.726L197.797 155.372ZM245.99 210.421H230.01V216.421H245.99V210.421ZM232.412 211.624L194.486 160.914L189.681 164.507L227.607 215.217L232.412 211.624ZM189.841 160.717L176.205 176.058L180.689 180.044L194.326 164.704L189.841 160.717ZM175.447 178.051V213.421H181.447V178.051H175.447ZM178.447 210.421H165.237V216.421H178.447V210.421Z" fill="#66B5FF" style="mix-blend-mode:lighten" mask="url(#path-5-outside-2_144_7)"/>
<circle cx="160" cy="160" r="152.5" stroke="#66B5FF" stroke-opacity="0.4" stroke-width="15" stroke-linecap="round" stroke-linejoin="bevel"/>
<defs>
<filter id="filter0_d_144_7" x="32.8621" y="44.5862" width="253.172" height="253.172" filterUnits="userSpaceOnUse" color-interpolation-filters="sRGB">
<feFlood flood-opacity="0" result="BackgroundImageFix"/>
<feColorMatrix in="SourceAlpha" type="matrix" values="0 0 0 0 0 0 0 0 0 0 0 0 0 0 0 0 0 0 127 0" result="hardAlpha"/>
<feOffset dy="4"/>
<feGaussianBlur stdDeviation="2"/>
<feComposite in2="hardAlpha" operator="out"/>
<feColorMatrix type="matrix" values="0 0 0 0 0 0 0 0 0 0 0 0 0 0 0 0 0 0 0.25 0"/>
<feBlend mode="normal" in2="BackgroundImageFix" result="effect1_dropShadow_144_7"/>
<feBlend mode="normal" in="SourceGraphic" in2="effect1_dropShadow_144_7" result="shape"/>
</filter>
</defs>
</svg>
