<svg width="100" height="100" viewBox="0 0 100 100" fill="none" xmlns="http://www.w3.org/2000/svg">
<g clip-path="url(#clip0_182_7)">
<circle cx="50" cy="50" r="46.5" stroke="black" stroke-width="7"/>
<circle cx="50" cy="50" r="46.5" stroke="black" stroke-opacity="0.7" stroke-width="7"/>
<circle cx="50" cy="50" r="37.5" stroke="black" stroke-opacity="0.5" stroke-width="5"/>
<mask id="path-3-outside-1_182_7" maskUnits="userSpaceOnUse" x="50" y="24" width="42" height="51" fill="black">
<rect fill="white" x="50" y="24" width="42" height="51"/>
<path d="M52.6364 73V26.4545H58.2727V49.5455H58.8182L79.7273 26.4545H87.0909L67.5455 47.4545L87.0909 73H80.2727L64.0909 51.3636L58.2727 57.9091V73H52.6364Z"/>
</mask>
<path d="M52.6364 73V26.4545H58.2727V49.5455H58.8182L79.7273 26.4545H87.0909L67.5455 47.4545L87.0909 73H80.2727L64.0909 51.3636L58.2727 57.9091V73H52.6364Z" fill="black"/>
<path d="M52.6364 73H50.6364V75H52.6364V73ZM52.6364 26.4545V24.4545H50.6364V26.4545H52.6364ZM58.2727 26.4545H60.2727V24.4545H58.2727V26.4545ZM58.2727 49.5455H56.2727V51.5455H58.2727V49.5455ZM58.8182 49.5455V51.5455H59.7053L60.3007 50.8879L58.8182 49.5455ZM79.7273 26.4545V24.4545H78.8402L78.2448 25.1121L79.7273 26.4545ZM87.0909 26.4545L88.5549 27.8171L91.6846 24.4545H87.0909V26.4545ZM67.5455 47.4545L66.0815 46.0919L64.9307 47.3284L65.9571 48.6699L67.5455 47.4545ZM87.0909 73V75H91.1394L88.6793 71.7847L87.0909 73ZM80.2727 73L78.6711 74.1978L79.271 75H80.2727V73ZM64.0909 51.3636L65.6925 50.1658L64.2245 48.2029L62.5961 50.0349L64.0909 51.3636ZM58.2727 57.9091L56.7779 56.5804L56.2727 57.1487V57.9091H58.2727ZM58.2727 73V75H60.2727V73H58.2727ZM54.6364 73V26.4545H50.6364V73H54.6364ZM52.6364 28.4545H58.2727V24.4545H52.6364V28.4545ZM56.2727 26.4545V49.5455H60.2727V26.4545H56.2727ZM58.2727 51.5455H58.8182V47.5455H58.2727V51.5455ZM60.3007 50.8879L81.2098 27.797L78.2448 25.1121L57.3357 48.203L60.3007 50.8879ZM79.7273 28.4545H87.0909V24.4545H79.7273V28.4545ZM85.6269 25.0919L66.0815 46.0919L69.0095 48.8171L88.5549 27.8171L85.6269 25.0919ZM65.9571 48.6699L85.5025 74.2153L88.6793 71.7847L69.1339 46.2392L65.9571 48.6699ZM87.0909 71H80.2727V75H87.0909V71ZM81.8743 71.8022L65.6925 50.1658L62.4893 52.5615L78.6711 74.1978L81.8743 71.8022ZM62.5961 50.0349L56.7779 56.5804L59.7675 59.2378L65.5857 52.6924L62.5961 50.0349ZM56.2727 57.9091V73H60.2727V57.9091H56.2727ZM58.2727 71H52.6364V75H58.2727V71Z" fill="white" mask="url(#path-3-outside-1_182_7)"/>
<path d="M19.6364 73V26.4545H47.5455V31.4545H25.2727V47.1818H45.4545V52.1818H25.2727V73H19.6364Z" fill="black"/>
</g>
<defs>
<clipPath id="clip0_182_7">
<rect width="100" height="100" fill="white"/>
</clipPath>
</defs>
</svg>
