<svg width="170" height="170" viewBox="0 0 170 170" fill="none" xmlns="http://www.w3.org/2000/svg">
<circle cx="90" cy="90" r="76.5" stroke="#7964F7" stroke-opacity="0.5" stroke-width="7"/>
<circle cx="90" cy="90" r="62.5" stroke="#7964F7" stroke-opacity="0.5" stroke-width="5"/>
<mask id="path-3-outside-1_269_203" maskUnits="userSpaceOnUse" x="96" y="53" width="59" height="74" fill="black">
<rect fill="white" x="96" y="53" width="59" height="74"/>
<path d="M98.4545 125V55.1818H106.909V89.8182H107.727L139.091 55.1818H150.136L120.818 86.6818L150.136 125H139.909L115.636 92.5455L106.909 102.364V125H98.4545Z"/>
</mask>
<path d="M98.4545 125V55.1818H106.909V89.8182H107.727L139.091 55.1818H150.136L120.818 86.6818L150.136 125H139.909L115.636 92.5455L106.909 102.364V125H98.4545Z" fill="#7964F7" fill-opacity="0.7"/>
<path d="M98.4545 125H96.4545V127H98.4545V125ZM98.4545 55.1818V53.1818H96.4545V55.1818H98.4545ZM106.909 55.1818H108.909V53.1818H106.909V55.1818ZM106.909 89.8182H104.909V91.8182H106.909V89.8182ZM107.727 89.8182V91.8182H108.614L109.21 91.1606L107.727 89.8182ZM139.091 55.1818V53.1818H138.204L137.608 53.8394L139.091 55.1818ZM150.136 55.1818L151.6 56.5444L154.73 53.1818H150.136V55.1818ZM120.818 86.6818L119.354 85.3192L118.203 86.5556L119.23 87.8971L120.818 86.6818ZM150.136 125V127H154.185L151.725 123.785L150.136 125ZM139.909 125L138.307 126.198L138.907 127H139.909V125ZM115.636 92.5455L117.238 91.3476L115.77 89.3848L114.142 91.2167L115.636 92.5455ZM106.909 102.364L105.414 101.035L104.909 101.603V102.364H106.909ZM106.909 125V127H108.909V125H106.909ZM100.455 125V55.1818H96.4545V125H100.455ZM98.4545 57.1818H106.909V53.1818H98.4545V57.1818ZM104.909 55.1818V89.8182H108.909V55.1818H104.909ZM106.909 91.8182H107.727V87.8182H106.909V91.8182ZM109.21 91.1606L140.573 56.5243L137.608 53.8394L106.245 88.4757L109.21 91.1606ZM139.091 57.1818H150.136V53.1818H139.091V57.1818ZM148.672 53.8192L119.354 85.3192L122.282 88.0444L151.6 56.5444L148.672 53.8192ZM119.23 87.8971L148.548 126.215L151.725 123.785L122.407 85.4665L119.23 87.8971ZM150.136 123H139.909V127H150.136V123ZM141.511 123.802L117.238 91.3476L114.035 93.7433L138.307 126.198L141.511 123.802ZM114.142 91.2167L105.414 101.035L108.404 103.692L117.131 93.8742L114.142 91.2167ZM104.909 102.364V125H108.909V102.364H104.909ZM106.909 123H98.4545V127H106.909V123Z" fill="#B5AAF5" fill-opacity="0.7" mask="url(#path-3-outside-1_269_203)"/>
<mask id="path-5-outside-2_269_203" maskUnits="userSpaceOnUse" x="40" y="53" width="47" height="74" fill="black">
<rect fill="white" x="40" y="53" width="47" height="74"/>
<path d="M42.4545 125V55.1818H84.3182V62.6818H50.9091V86.2727H81.1818V93.7727H50.9091V125H42.4545Z"/>
</mask>
<path d="M42.4545 125V55.1818H84.3182V62.6818H50.9091V86.2727H81.1818V93.7727H50.9091V125H42.4545Z" fill="#7964F7" fill-opacity="0.7"/>
<path d="M42.4545 125H40.4545V127H42.4545V125ZM42.4545 55.1818V53.1818H40.4545V55.1818H42.4545ZM84.3182 55.1818H86.3182V53.1818H84.3182V55.1818ZM84.3182 62.6818V64.6818H86.3182V62.6818H84.3182ZM50.9091 62.6818V60.6818H48.9091V62.6818H50.9091ZM50.9091 86.2727H48.9091V88.2727H50.9091V86.2727ZM81.1818 86.2727H83.1818V84.2727H81.1818V86.2727ZM81.1818 93.7727V95.7727H83.1818V93.7727H81.1818ZM50.9091 93.7727V91.7727H48.9091V93.7727H50.9091ZM50.9091 125V127H52.9091V125H50.9091ZM44.4545 125V55.1818H40.4545V125H44.4545ZM42.4545 57.1818H84.3182V53.1818H42.4545V57.1818ZM82.3182 55.1818V62.6818H86.3182V55.1818H82.3182ZM84.3182 60.6818H50.9091V64.6818H84.3182V60.6818ZM48.9091 62.6818V86.2727H52.9091V62.6818H48.9091ZM50.9091 88.2727H81.1818V84.2727H50.9091V88.2727ZM79.1818 86.2727V93.7727H83.1818V86.2727H79.1818ZM81.1818 91.7727H50.9091V95.7727H81.1818V91.7727ZM48.9091 93.7727V125H52.9091V93.7727H48.9091ZM50.9091 123H42.4545V127H50.9091V123Z" fill="#B5AAF5" fill-opacity="0.7" mask="url(#path-5-outside-2_269_203)"/>
</svg>
