<svg width="363" height="100" viewBox="0 0 363 100" fill="none" xmlns="http://www.w3.org/2000/svg">
<g clip-path="url(#clip0_220_7)">
<rect width="363" height="100" fill="#2E2F30"/>
<mask id="path-1-outside-1_220_7" maskUnits="userSpaceOnUse" x="25" y="12" width="111" height="80" fill="black">
<rect fill="white" x="25" y="12" width="111" height="80"/>
<path d="M38.104 85.968C38.104 89.04 36.216 90.576 32.44 90.576C28.664 90.576 26.776 89.04 26.776 85.968V19.536C26.776 18.064 27.192 16.752 28.024 15.6C28.856 14.384 30.456 13.776 32.824 13.776H65.464C67.768 13.776 68.984 15.376 69.112 18.576C69.24 21.84 68.024 23.472 65.464 23.472H38.104V85.968ZM62.68 50.352C62.68 51.44 62.456 52.496 62.008 53.52C61.624 54.48 61.048 55.312 60.28 56.016C59.576 56.72 58.744 57.296 57.784 57.744C56.824 58.128 55.768 58.32 54.616 58.32C52.44 58.32 50.584 57.552 49.048 56.016C47.512 54.48 46.744 52.592 46.744 50.352C46.744 48.112 47.512 46.224 49.048 44.688C50.584 43.152 52.44 42.384 54.616 42.384C55.768 42.384 56.824 42.608 57.784 43.056C58.744 43.44 59.576 44.016 60.28 44.784C61.048 45.488 61.624 46.32 62.008 47.28C62.456 48.24 62.68 49.264 62.68 50.352ZM120.163 14.928C121.123 13.776 122.211 13.2 123.427 13.2C124.771 13.2 126.147 13.808 127.555 15.024C128.259 15.728 128.835 16.432 129.283 17.136C129.795 17.84 130.051 18.544 130.051 19.248C130.051 20.4 129.635 21.392 128.803 22.224L115.939 37.2L90.883 66.672V85.968C90.883 89.04 88.963 90.576 85.123 90.576C81.347 90.576 79.459 89.04 79.459 85.968V17.904C79.459 14.832 81.347 13.296 85.123 13.296C88.963 13.296 90.883 14.832 90.883 17.904V49.296L120.163 14.928ZM106.531 60.528C105.891 59.632 105.571 58.544 105.571 57.264C105.571 55.344 106.371 53.808 107.971 52.656H107.875C109.155 51.76 110.435 51.312 111.715 51.312C112.931 51.312 113.955 52.016 114.787 53.424L133.315 80.496L133.219 80.4C133.795 81.296 134.083 82.256 134.083 83.28C134.083 84.944 133.251 86.416 131.587 87.696H131.683C130.979 88.144 130.307 88.496 129.667 88.752C129.027 89.008 128.451 89.136 127.939 89.136C127.427 89.136 126.883 88.944 126.307 88.56C125.795 88.176 125.283 87.696 124.771 87.12L106.531 60.528Z"/>
</mask>
<path d="M38.104 85.968C38.104 89.04 36.216 90.576 32.44 90.576C28.664 90.576 26.776 89.04 26.776 85.968V19.536C26.776 18.064 27.192 16.752 28.024 15.6C28.856 14.384 30.456 13.776 32.824 13.776H65.464C67.768 13.776 68.984 15.376 69.112 18.576C69.24 21.84 68.024 23.472 65.464 23.472H38.104V85.968ZM62.68 50.352C62.68 51.44 62.456 52.496 62.008 53.52C61.624 54.48 61.048 55.312 60.28 56.016C59.576 56.72 58.744 57.296 57.784 57.744C56.824 58.128 55.768 58.32 54.616 58.32C52.44 58.32 50.584 57.552 49.048 56.016C47.512 54.48 46.744 52.592 46.744 50.352C46.744 48.112 47.512 46.224 49.048 44.688C50.584 43.152 52.44 42.384 54.616 42.384C55.768 42.384 56.824 42.608 57.784 43.056C58.744 43.44 59.576 44.016 60.28 44.784C61.048 45.488 61.624 46.32 62.008 47.28C62.456 48.24 62.68 49.264 62.68 50.352ZM120.163 14.928C121.123 13.776 122.211 13.2 123.427 13.2C124.771 13.2 126.147 13.808 127.555 15.024C128.259 15.728 128.835 16.432 129.283 17.136C129.795 17.84 130.051 18.544 130.051 19.248C130.051 20.4 129.635 21.392 128.803 22.224L115.939 37.2L90.883 66.672V85.968C90.883 89.04 88.963 90.576 85.123 90.576C81.347 90.576 79.459 89.04 79.459 85.968V17.904C79.459 14.832 81.347 13.296 85.123 13.296C88.963 13.296 90.883 14.832 90.883 17.904V49.296L120.163 14.928ZM106.531 60.528C105.891 59.632 105.571 58.544 105.571 57.264C105.571 55.344 106.371 53.808 107.971 52.656H107.875C109.155 51.76 110.435 51.312 111.715 51.312C112.931 51.312 113.955 52.016 114.787 53.424L133.315 80.496L133.219 80.4C133.795 81.296 134.083 82.256 134.083 83.28C134.083 84.944 133.251 86.416 131.587 87.696H131.683C130.979 88.144 130.307 88.496 129.667 88.752C129.027 89.008 128.451 89.136 127.939 89.136C127.427 89.136 126.883 88.944 126.307 88.56C125.795 88.176 125.283 87.696 124.771 87.12L106.531 60.528Z" fill="#3B37F8"/>
<path d="M28.024 15.6L28.8347 16.1855C28.8396 16.1786 28.8445 16.1717 28.8493 16.1647L28.024 15.6ZM69.112 18.576L70.1112 18.5368L70.1112 18.536L69.112 18.576ZM38.104 23.472V22.472C37.5517 22.472 37.104 22.9197 37.104 23.472H38.104ZM62.008 53.52L61.0918 53.1192C61.0876 53.1289 61.0835 53.1387 61.0795 53.1486L62.008 53.52ZM60.28 56.016L59.6043 55.2788C59.5936 55.2886 59.5831 55.2987 59.5729 55.3089L60.28 56.016ZM57.784 57.744L58.1554 58.6725C58.1728 58.6655 58.1899 58.6581 58.2069 58.6502L57.784 57.744ZM57.784 43.056L57.3611 43.9622C57.3781 43.9701 57.3952 43.9775 57.4126 43.9845L57.784 43.056ZM60.28 44.784L59.5428 45.4597C59.5624 45.4811 59.5829 45.5016 59.6043 45.5212L60.28 44.784ZM62.008 47.28L61.0795 47.6514C61.0865 47.6688 61.0939 47.6859 61.1018 47.7029L62.008 47.28ZM37.104 85.968C37.104 87.2891 36.7081 88.1185 36.0569 88.6483C35.3662 89.2102 34.2182 89.576 32.44 89.576V91.576C34.4378 91.576 36.1218 91.1738 37.3191 90.1997C38.5559 89.1935 39.104 87.7189 39.104 85.968H37.104ZM32.44 89.576C30.6618 89.576 29.5138 89.2102 28.8231 88.6483C28.1719 88.1185 27.776 87.2891 27.776 85.968H25.776C25.776 87.7189 26.3241 89.1935 27.5609 90.1997C28.7582 91.1738 30.4422 91.576 32.44 91.576V89.576ZM27.776 85.968V19.536H25.776V85.968H27.776ZM27.776 19.536C27.776 18.2662 28.1304 17.1607 28.8347 16.1855L27.2133 15.0145C26.2536 16.3433 25.776 17.8618 25.776 19.536H27.776ZM28.8493 16.1647C29.4032 15.3552 30.581 14.776 32.824 14.776V12.776C30.331 12.776 28.3088 13.4128 27.1987 15.0353L28.8493 16.1647ZM32.824 14.776H65.464V12.776H32.824V14.776ZM65.464 14.776C66.3556 14.776 66.9184 15.0686 67.3078 15.5811C67.738 16.1471 68.0525 17.1089 68.1128 18.616L70.1112 18.536C70.0435 16.8431 69.686 15.4049 68.9002 14.3709C68.0736 13.2834 66.8765 12.776 65.464 12.776V14.776ZM68.1128 18.6152C68.1729 20.1477 67.9043 21.1 67.4941 21.6505C67.1229 22.1487 66.5184 22.472 65.464 22.472V24.472C66.9696 24.472 68.2531 23.9793 69.0979 22.8455C69.9037 21.764 70.1791 20.2683 70.1112 18.5368L68.1128 18.6152ZM65.464 22.472H38.104V24.472H65.464V22.472ZM37.104 23.472V85.968H39.104V23.472H37.104ZM61.68 50.352C61.68 51.2982 61.4861 52.218 61.0918 53.1192L62.9242 53.9208C63.4259 52.774 63.68 51.5818 63.68 50.352H61.68ZM61.0795 53.1486C60.7517 53.9682 60.2625 54.6755 59.6043 55.2788L60.9557 56.7532C61.8335 55.9485 62.4963 54.9918 62.9365 53.8914L61.0795 53.1486ZM59.5729 55.3089C58.9565 55.9253 58.2223 56.4359 57.3611 56.8378L58.2069 58.6502C59.2657 58.1561 60.1955 57.5147 60.9871 56.7231L59.5729 55.3089ZM57.4126 56.8155C56.5835 57.1472 55.6553 57.32 54.616 57.32V59.32C55.8807 59.32 57.0645 59.1088 58.1554 58.6725L57.4126 56.8155ZM54.616 57.32C52.7047 57.32 51.1032 56.657 49.7551 55.3089L48.3409 56.7231C50.0648 58.447 52.1753 59.32 54.616 59.32V57.32ZM49.7551 55.3089C48.4131 53.9669 47.744 52.336 47.744 50.352H45.744C45.744 52.848 46.6109 54.9931 48.3409 56.7231L49.7551 55.3089ZM47.744 50.352C47.744 48.368 48.4131 46.7371 49.7551 45.3951L48.3409 43.9809C46.6109 45.7109 45.744 47.856 45.744 50.352H47.744ZM49.7551 45.3951C51.1032 44.047 52.7047 43.384 54.616 43.384V41.384C52.1753 41.384 50.0648 42.257 48.3409 43.9809L49.7551 45.3951ZM54.616 43.384C55.6348 43.384 56.5448 43.5812 57.3611 43.9622L58.2069 42.1498C57.1032 41.6348 55.9012 41.384 54.616 41.384V43.384ZM57.4126 43.9845C58.2322 44.3123 58.9395 44.8015 59.5428 45.4597L61.0172 44.1083C60.2125 43.2305 59.2558 42.5677 58.1554 42.1275L57.4126 43.9845ZM59.6043 45.5212C60.2625 46.1245 60.7517 46.8318 61.0795 47.6514L62.9365 46.9086C62.4963 45.8082 61.8335 44.8515 60.9557 44.0468L59.6043 45.5212ZM61.1018 47.7029C61.4863 48.5268 61.68 49.4061 61.68 50.352H63.68C63.68 49.1219 63.4257 47.9532 62.9142 46.8571L61.1018 47.7029ZM120.163 14.928L120.924 15.5765L120.931 15.5682L120.163 14.928ZM127.555 15.024L128.262 14.3169C128.245 14.2997 128.227 14.2831 128.209 14.2672L127.555 15.024ZM129.283 17.136L128.439 17.6729C128.45 17.6903 128.462 17.7074 128.474 17.7242L129.283 17.136ZM128.803 22.224L128.096 21.5169C128.078 21.5347 128.061 21.5533 128.044 21.5724L128.803 22.224ZM115.939 37.2L115.18 36.5484L115.177 36.5523L115.939 37.2ZM90.883 66.672L90.1211 66.0243C89.9674 66.2051 89.883 66.4347 89.883 66.672H90.883ZM90.883 49.296H89.883C89.883 49.715 90.1442 50.0896 90.5375 50.2344C90.9307 50.3792 91.3725 50.2635 91.6442 49.9445L90.883 49.296ZM106.531 60.528L107.356 59.9624C107.352 59.9571 107.348 59.9519 107.345 59.9468L106.531 60.528ZM107.971 52.656L108.555 53.4675C108.908 53.2139 109.056 52.7621 108.923 52.349C108.789 51.936 108.405 51.656 107.971 51.656V52.656ZM107.875 52.656L107.302 51.8368C106.944 52.0871 106.79 52.5404 106.921 52.9566C107.052 53.3729 107.439 53.656 107.875 53.656V52.656ZM114.787 53.424L113.926 53.9327C113.937 53.9518 113.949 53.9705 113.962 53.9888L114.787 53.424ZM133.315 80.496L132.608 81.2031C132.973 81.5683 133.556 81.5953 133.954 81.2655C134.351 80.9356 134.432 80.3574 134.14 79.9312L133.315 80.496ZM133.219 80.4L133.926 79.6929C133.565 79.3316 132.989 79.3008 132.591 79.6214C132.194 79.942 132.102 80.511 132.378 80.9408L133.219 80.4ZM131.587 87.696L130.977 86.9034C130.638 87.1644 130.502 87.6126 130.64 88.018C130.778 88.4234 131.159 88.696 131.587 88.696V87.696ZM131.683 87.696L132.22 88.5397C132.595 88.301 132.767 87.8433 132.643 87.4164C132.519 86.9895 132.128 86.696 131.683 86.696V87.696ZM129.667 88.752L130.038 89.6805L130.038 89.6805L129.667 88.752ZM126.307 88.56L125.707 89.36C125.722 89.3711 125.737 89.3818 125.752 89.3921L126.307 88.56ZM124.771 87.12L123.946 87.6856C123.97 87.7201 123.996 87.7531 124.024 87.7844L124.771 87.12ZM120.931 15.5682C121.75 14.586 122.576 14.2 123.427 14.2V12.2C121.846 12.2 120.496 12.966 119.395 14.2878L120.931 15.5682ZM123.427 14.2C124.453 14.2 125.605 14.6616 126.901 15.7808L128.209 14.2672C126.689 12.9544 125.089 12.2 123.427 12.2V14.2ZM126.848 15.7311C127.51 16.3931 128.037 17.0409 128.439 17.6729L130.127 16.5991C129.633 15.8231 129.008 15.0629 128.262 14.3169L126.848 15.7311ZM128.474 17.7242C128.892 18.2983 129.051 18.801 129.051 19.248H131.051C131.051 18.287 130.698 17.3817 130.092 16.5478L128.474 17.7242ZM129.051 19.248C129.051 20.1285 128.745 20.8679 128.096 21.5169L129.51 22.9311C130.525 21.9161 131.051 20.6715 131.051 19.248H129.051ZM128.044 21.5724L115.18 36.5484L116.698 37.8516L129.562 22.8756L128.044 21.5724ZM115.177 36.5523L90.1211 66.0243L91.6449 67.3197L116.701 37.8477L115.177 36.5523ZM89.883 66.672V85.968H91.883V66.672H89.883ZM89.883 85.968C89.883 87.2833 89.483 88.1114 88.8183 88.6431C88.111 89.209 86.9362 89.576 85.123 89.576V91.576C87.1498 91.576 88.855 91.175 90.0677 90.2049C91.323 89.2006 91.883 87.7247 91.883 85.968H89.883ZM85.123 89.576C83.3448 89.576 82.1968 89.2102 81.5061 88.6483C80.8549 88.1185 80.459 87.2891 80.459 85.968H78.459C78.459 87.7189 79.0071 89.1935 80.2439 90.1997C81.4412 91.1738 83.1252 91.576 85.123 91.576V89.576ZM80.459 85.968V17.904H78.459V85.968H80.459ZM80.459 17.904C80.459 16.5829 80.8549 15.7535 81.5061 15.2237C82.1968 14.6618 83.3448 14.296 85.123 14.296V12.296C83.1252 12.296 81.4412 12.6982 80.2439 13.6723C79.0071 14.6785 78.459 16.153 78.459 17.904H80.459ZM85.123 14.296C86.9362 14.296 88.111 14.663 88.8183 15.2289C89.483 15.7606 89.883 16.5887 89.883 17.904H91.883C91.883 16.1473 91.323 14.6714 90.0677 13.6671C88.855 12.697 87.1498 12.296 85.123 12.296V14.296ZM89.883 17.904V49.296H91.883V17.904H89.883ZM91.6442 49.9445L120.924 15.5765L119.402 14.2795L90.1218 48.6475L91.6442 49.9445ZM107.345 59.9468C106.845 59.2468 106.571 58.3705 106.571 57.264H104.571C104.571 58.7175 104.937 60.0172 105.717 61.1092L107.345 59.9468ZM106.571 57.264C106.571 55.6757 107.208 54.4376 108.555 53.4675L107.387 51.8445C105.534 53.1784 104.571 55.0123 104.571 57.264H106.571ZM107.971 51.656H107.875V53.656H107.971V51.656ZM108.448 53.4752C109.598 52.6705 110.682 52.312 111.715 52.312V50.312C110.188 50.312 108.712 50.8495 107.302 51.8368L108.448 53.4752ZM111.715 52.312C112.458 52.312 113.204 52.7105 113.926 53.9327L115.648 52.9153C114.706 51.3215 113.404 50.312 111.715 50.312V52.312ZM113.962 53.9888L132.49 81.0608L134.14 79.9312L115.612 52.8592L113.962 53.9888ZM134.022 79.7889L133.926 79.6929L132.512 81.1071L132.608 81.2031L134.022 79.7889ZM132.378 80.9408C132.855 81.6823 133.083 82.4557 133.083 83.28H135.083C135.083 82.0563 134.735 80.9097 134.06 79.8592L132.378 80.9408ZM133.083 83.28C133.083 84.5539 132.466 85.7582 130.977 86.9034L132.197 88.4886C134.036 87.0738 135.083 85.3341 135.083 83.28H133.083ZM131.587 88.696H131.683V86.696H131.587V88.696ZM131.146 86.8523C130.484 87.2737 129.867 87.5948 129.296 87.8235L130.038 89.6805C130.747 89.3972 131.474 89.0143 132.22 88.5397L131.146 86.8523ZM129.296 87.8235C128.735 88.0477 128.288 88.136 127.939 88.136V90.136C128.614 90.136 129.319 89.9683 130.038 89.6805L129.296 87.8235ZM127.939 88.136C127.683 88.136 127.33 88.04 126.862 87.7279L125.752 89.3921C126.436 89.848 127.171 90.136 127.939 90.136V88.136ZM126.907 87.76C126.458 87.4233 125.995 86.9914 125.518 86.4556L124.024 87.7844C124.571 88.4006 125.132 88.9287 125.707 89.36L126.907 87.76ZM125.596 86.5544L107.356 59.9624L105.706 61.0936L123.946 87.6856L125.596 86.5544Z" fill="#6C90F8" mask="url(#path-1-outside-1_220_7)"/>
<mask id="path-3-outside-2_220_7" maskUnits="userSpaceOnUse" x="136" y="12" width="148" height="80" fill="black">
<rect fill="white" x="136" y="12" width="148" height="80"/>
<path d="M211.032 16.944L210.936 17.04C211.32 15.632 212.056 14.608 213.144 13.968C214.296 13.328 215.8 13.168 217.656 13.488C219.512 13.808 220.824 14.384 221.592 15.216C222.424 16.048 222.616 17.2 222.168 18.672L204.888 87.504V87.408C204.568 88.496 203.832 89.328 202.68 89.904C201.592 90.48 200.44 90.768 199.224 90.768C197.816 90.768 196.472 90.544 195.192 90.096C193.976 89.712 193.208 88.88 192.888 87.6L192.984 87.696L181.176 40.848H178.584L166.872 87.6C166.552 88.688 165.752 89.488 164.472 90C163.192 90.512 161.88 90.768 160.536 90.768C158.872 90.768 157.528 90.512 156.504 90C155.544 89.552 154.904 88.72 154.584 87.504L154.68 87.6L137.4 18.672C137.08 17.392 137.368 16.304 138.264 15.408C139.16 14.448 140.44 13.808 142.104 13.488C145.688 12.912 147.864 14.096 148.632 17.04L148.536 16.944L152.856 34.32C153.432 36.624 154.008 38.992 154.584 41.424C155.16 43.792 155.8 46.352 156.504 49.104C157.208 51.792 157.976 54.736 158.808 57.936C159.64 61.136 160.568 64.72 161.592 68.688L173.88 16.848C174.2 15.44 174.936 14.512 176.088 14.064C177.24 13.616 178.52 13.392 179.928 13.392C181.208 13.392 182.456 13.648 183.672 14.16C184.888 14.608 185.656 15.568 185.976 17.04L198.648 68.4L211.032 16.944ZM264.787 80.4C267.155 80.4 268.819 79.728 269.779 78.384C270.739 77.04 271.219 75.536 271.219 73.872V29.904C271.219 28.304 270.739 26.832 269.779 25.488C268.819 24.144 267.155 23.472 264.787 23.472H242.323L242.227 86.064C242.227 87.472 241.683 88.592 240.595 89.424C239.507 90.256 238.163 90.672 236.563 90.672C232.787 90.672 230.899 89.136 230.899 86.064V19.536C230.899 17.232 231.475 15.696 232.627 14.928C233.843 14.16 235.283 13.776 236.947 13.776H267.187C268.851 13.776 270.579 14.128 272.371 14.832C274.163 15.536 275.891 16.432 277.555 17.52H277.459C279.123 18.736 280.403 20.336 281.299 22.32C282.195 24.24 282.643 26.48 282.643 29.04V74.64C282.643 79.824 280.915 83.696 277.459 86.256C275.795 87.472 274.067 88.432 272.275 89.136C270.547 89.776 268.851 90.096 267.187 90.096H251.059C249.971 90.096 249.107 89.648 248.467 88.752C247.891 87.856 247.603 86.672 247.603 85.2C247.603 82 248.979 80.4 251.731 80.4H264.787Z"/>
</mask>
<path d="M211.032 16.944L210.936 17.04C211.32 15.632 212.056 14.608 213.144 13.968C214.296 13.328 215.8 13.168 217.656 13.488C219.512 13.808 220.824 14.384 221.592 15.216C222.424 16.048 222.616 17.2 222.168 18.672L204.888 87.504V87.408C204.568 88.496 203.832 89.328 202.68 89.904C201.592 90.48 200.44 90.768 199.224 90.768C197.816 90.768 196.472 90.544 195.192 90.096C193.976 89.712 193.208 88.88 192.888 87.6L192.984 87.696L181.176 40.848H178.584L166.872 87.6C166.552 88.688 165.752 89.488 164.472 90C163.192 90.512 161.88 90.768 160.536 90.768C158.872 90.768 157.528 90.512 156.504 90C155.544 89.552 154.904 88.72 154.584 87.504L154.68 87.6L137.4 18.672C137.08 17.392 137.368 16.304 138.264 15.408C139.16 14.448 140.44 13.808 142.104 13.488C145.688 12.912 147.864 14.096 148.632 17.04L148.536 16.944L152.856 34.32C153.432 36.624 154.008 38.992 154.584 41.424C155.16 43.792 155.8 46.352 156.504 49.104C157.208 51.792 157.976 54.736 158.808 57.936C159.64 61.136 160.568 64.72 161.592 68.688L173.88 16.848C174.2 15.44 174.936 14.512 176.088 14.064C177.24 13.616 178.52 13.392 179.928 13.392C181.208 13.392 182.456 13.648 183.672 14.16C184.888 14.608 185.656 15.568 185.976 17.04L198.648 68.4L211.032 16.944ZM264.787 80.4C267.155 80.4 268.819 79.728 269.779 78.384C270.739 77.04 271.219 75.536 271.219 73.872V29.904C271.219 28.304 270.739 26.832 269.779 25.488C268.819 24.144 267.155 23.472 264.787 23.472H242.323L242.227 86.064C242.227 87.472 241.683 88.592 240.595 89.424C239.507 90.256 238.163 90.672 236.563 90.672C232.787 90.672 230.899 89.136 230.899 86.064V19.536C230.899 17.232 231.475 15.696 232.627 14.928C233.843 14.16 235.283 13.776 236.947 13.776H267.187C268.851 13.776 270.579 14.128 272.371 14.832C274.163 15.536 275.891 16.432 277.555 17.52H277.459C279.123 18.736 280.403 20.336 281.299 22.32C282.195 24.24 282.643 26.48 282.643 29.04V74.64C282.643 79.824 280.915 83.696 277.459 86.256C275.795 87.472 274.067 88.432 272.275 89.136C270.547 89.776 268.851 90.096 267.187 90.096H251.059C249.971 90.096 249.107 89.648 248.467 88.752C247.891 87.856 247.603 86.672 247.603 85.2C247.603 82 248.979 80.4 251.731 80.4H264.787Z" fill="#6C90F8"/>
<path d="M211.032 16.944L212.004 17.178C212.109 16.7426 211.912 16.2906 211.521 16.0716C211.13 15.8527 210.642 15.9202 210.325 16.2369L211.032 16.944ZM210.936 17.04L209.971 16.7769C209.852 17.2143 210.042 17.6773 210.434 17.9049C210.826 18.1325 211.322 18.0677 211.643 17.7471L210.936 17.04ZM213.144 13.968L212.658 13.0938C212.651 13.0978 212.644 13.1019 212.637 13.1061L213.144 13.968ZM217.656 13.488L217.826 12.5025L217.826 12.5025L217.656 13.488ZM221.592 15.216L220.857 15.8943C220.866 15.9041 220.875 15.9137 220.885 15.9231L221.592 15.216ZM222.168 18.672L221.211 18.3808C221.207 18.3966 221.202 18.4125 221.198 18.4285L222.168 18.672ZM204.888 87.504H203.888C203.888 88.0088 204.264 88.4345 204.765 88.4964C205.266 88.5584 205.735 88.2371 205.858 87.7475L204.888 87.504ZM204.888 87.408H205.888C205.888 86.9108 205.523 86.4891 205.031 86.4182C204.538 86.3473 204.069 86.6488 203.929 87.1258L204.888 87.408ZM202.68 89.904L202.233 89.0096C202.226 89.013 202.219 89.0166 202.212 89.0202L202.68 89.904ZM195.192 90.096L195.522 89.1521C195.513 89.1488 195.503 89.1455 195.493 89.1424L195.192 90.096ZM192.888 87.6L193.595 86.8929C193.277 86.5751 192.786 86.5083 192.395 86.7298C192.004 86.9513 191.809 87.4065 191.918 87.8425L192.888 87.6ZM192.984 87.696L192.277 88.4031C192.595 88.7212 193.086 88.7877 193.478 88.5657C193.869 88.3437 194.064 87.8878 193.954 87.4516L192.984 87.696ZM181.176 40.848L182.146 40.6036C182.034 40.1593 181.634 39.848 181.176 39.848V40.848ZM178.584 40.848V39.848C178.125 39.848 177.725 40.1601 177.614 40.605L178.584 40.848ZM166.872 87.6L167.831 87.8822C167.835 87.8692 167.839 87.8561 167.842 87.843L166.872 87.6ZM156.504 90L156.951 89.1056C156.943 89.1015 156.935 89.0976 156.927 89.0938L156.504 90ZM154.584 87.504L155.291 86.7969C154.972 86.4774 154.478 86.4118 154.086 86.6369C153.694 86.8619 153.502 87.3216 153.617 87.7585L154.584 87.504ZM154.68 87.6L153.973 88.3071C154.291 88.625 154.782 88.6917 155.173 88.47C155.564 88.2484 155.759 87.7929 155.65 87.3568L154.68 87.6ZM137.4 18.672L136.43 18.9145L136.43 18.9152L137.4 18.672ZM138.264 15.408L138.971 16.1151C138.979 16.107 138.987 16.0987 138.995 16.0903L138.264 15.408ZM142.104 13.488L141.945 12.5007C141.935 12.5023 141.925 12.5041 141.915 12.506L142.104 13.488ZM148.632 17.04L147.925 17.7471C148.244 18.0663 148.737 18.1321 149.129 17.9077C149.521 17.6833 149.714 17.2243 149.6 16.7876L148.632 17.04ZM148.536 16.944L149.243 16.2369C148.925 15.9192 148.435 15.8524 148.044 16.0735C147.653 16.2946 147.457 16.7493 147.566 17.1853L148.536 16.944ZM152.856 34.32L151.886 34.5613L151.886 34.5625L152.856 34.32ZM154.584 41.424L153.611 41.6545L153.612 41.6603L154.584 41.424ZM156.504 49.104L155.535 49.3518L155.537 49.3574L156.504 49.104ZM158.808 57.936L159.776 57.6844L159.776 57.6844L158.808 57.936ZM161.592 68.688L160.624 68.9379C160.739 69.383 161.142 69.6925 161.602 69.6879C162.062 69.6834 162.459 69.366 162.565 68.9186L161.592 68.688ZM173.88 16.848L174.853 17.0787L174.855 17.0696L173.88 16.848ZM176.088 14.064L176.45 14.996L176.45 14.996L176.088 14.064ZM183.672 14.16L183.284 15.0816C183.298 15.0875 183.312 15.0931 183.326 15.0983L183.672 14.16ZM185.976 17.04L184.999 17.2524C185.001 17.2615 185.003 17.2705 185.005 17.2795L185.976 17.04ZM198.648 68.4L197.677 68.6395C197.788 69.0872 198.19 69.4013 198.651 69.4C199.112 69.3987 199.512 69.0823 199.62 68.634L198.648 68.4ZM210.325 16.2369L210.229 16.3329L211.643 17.7471L211.739 17.6511L210.325 16.2369ZM211.901 17.3031C212.228 16.1044 212.823 15.3169 213.651 14.8299L212.637 13.1061C211.289 13.899 210.412 15.1596 209.971 16.7769L211.901 17.3031ZM213.63 14.8422C214.512 14.3519 215.761 14.176 217.486 14.4735L217.826 12.5025C215.839 12.16 214.08 12.3041 212.658 13.0938L213.63 14.8422ZM217.486 14.4735C219.257 14.7787 220.309 15.3004 220.857 15.8943L222.327 14.5377C221.339 13.4676 219.767 12.8373 217.826 12.5025L217.486 14.4735ZM220.885 15.9231C221.374 16.4121 221.59 17.1356 221.211 18.3808L223.125 18.9632C223.642 17.2644 223.474 15.6839 222.299 14.5089L220.885 15.9231ZM221.198 18.4285L203.918 87.2605L205.858 87.7475L223.138 18.9155L221.198 18.4285ZM205.888 87.504V87.408H203.888V87.504H205.888ZM203.929 87.1258C203.698 87.9102 203.174 88.5392 202.233 89.0096L203.127 90.7984C204.49 90.1168 205.438 89.0818 205.847 87.6902L203.929 87.1258ZM202.212 89.0202C201.266 89.5209 200.275 89.768 199.224 89.768V91.768C200.605 91.768 201.918 91.4391 203.148 90.7878L202.212 89.0202ZM199.224 89.768C197.924 89.768 196.692 89.5616 195.522 89.1521L194.862 91.0399C196.252 91.5264 197.708 91.768 199.224 91.768V89.768ZM195.493 89.1424C194.622 88.8674 194.097 88.3145 193.858 87.3575L191.918 87.8425C192.319 89.4455 193.33 90.5566 194.891 91.0496L195.493 89.1424ZM192.181 88.3071L192.277 88.4031L193.691 86.9889L193.595 86.8929L192.181 88.3071ZM193.954 87.4516L182.146 40.6036L180.206 41.0924L192.014 87.9404L193.954 87.4516ZM181.176 39.848H178.584V41.848H181.176V39.848ZM177.614 40.605L165.902 87.357L167.842 87.843L179.554 41.091L177.614 40.605ZM165.913 87.3178C165.698 88.0478 165.164 88.6462 164.101 89.0715L164.843 90.9285C166.34 90.3298 167.406 89.3282 167.831 87.8822L165.913 87.3178ZM164.101 89.0715C162.936 89.5375 161.749 89.768 160.536 89.768V91.768C162.011 91.768 163.448 91.4865 164.843 90.9285L164.101 89.0715ZM160.536 89.768C158.962 89.768 157.788 89.5239 156.951 89.1056L156.057 90.8944C157.268 91.5001 158.782 91.768 160.536 91.768V89.768ZM156.927 89.0938C156.287 88.7953 155.811 88.2377 155.551 87.2495L153.617 87.7585C153.997 89.2023 154.801 90.3087 156.081 90.9062L156.927 89.0938ZM153.877 88.2111L153.973 88.3071L155.387 86.8929L155.291 86.7969L153.877 88.2111ZM155.65 87.3568L138.37 18.4288L136.43 18.9152L153.71 87.8432L155.65 87.3568ZM138.37 18.4295C138.131 17.4731 138.336 16.7505 138.971 16.1151L137.557 14.7009C136.4 15.8575 136.029 17.3109 136.43 18.9145L138.37 18.4295ZM138.995 16.0903C139.71 15.3247 140.776 14.7616 142.293 14.47L141.915 12.506C140.104 12.8543 138.61 13.5713 137.533 14.7257L138.995 16.0903ZM142.263 14.4753C143.934 14.2067 145.124 14.3753 145.946 14.8224C146.738 15.2531 147.333 16.0223 147.664 17.2924L149.6 16.7876C149.163 15.1137 148.286 13.8188 146.902 13.0656C145.548 12.3287 143.858 12.1933 141.945 12.5007L142.263 14.4753ZM149.339 16.3329L149.243 16.2369L147.829 17.6511L147.925 17.7471L149.339 16.3329ZM147.566 17.1853L151.886 34.5613L153.826 34.0787L149.506 16.7027L147.566 17.1853ZM151.886 34.5625C152.461 36.8623 153.036 39.2263 153.611 41.6545L155.557 41.1935C154.98 38.7577 154.403 36.3857 153.826 34.0775L151.886 34.5625ZM153.612 41.6603C154.189 44.0327 154.83 46.5966 155.535 49.3518L157.473 48.8562C156.77 46.1074 156.131 43.5512 155.556 41.1876L153.612 41.6603ZM155.537 49.3574C156.24 52.0447 157.008 54.9881 157.84 58.1876L159.776 57.6844C158.944 54.4839 158.176 51.5393 157.471 48.8506L155.537 49.3574ZM157.84 58.1876C158.672 61.3869 159.6 64.9703 160.624 68.9379L162.56 68.4381C161.536 64.4697 160.608 60.8851 159.776 57.6844L157.84 58.1876ZM162.565 68.9186L174.853 17.0786L172.907 16.6174L160.619 68.4574L162.565 68.9186ZM174.855 17.0696C175.116 15.9225 175.664 15.302 176.45 14.996L175.726 13.132C174.208 13.722 173.284 14.9575 172.905 16.6264L174.855 17.0696ZM176.45 14.996C177.472 14.5987 178.627 14.392 179.928 14.392V12.392C178.413 12.392 177.008 12.6333 175.726 13.132L176.45 14.996ZM179.928 14.392C181.071 14.392 182.187 14.6197 183.284 15.0816L184.06 13.2384C182.725 12.6763 181.345 12.392 179.928 12.392V14.392ZM183.326 15.0983C184.165 15.4073 184.738 16.0509 184.999 17.2524L186.953 16.8276C186.574 15.0851 185.611 13.8086 184.018 13.2217L183.326 15.0983ZM185.005 17.2795L197.677 68.6395L199.619 68.1605L186.947 16.8004L185.005 17.2795ZM199.62 68.634L212.004 17.178L210.06 16.71L197.676 68.166L199.62 68.634ZM269.779 78.384L268.965 77.8028L268.965 77.8028L269.779 78.384ZM269.779 25.488L270.592 24.9068L270.592 24.9068L269.779 25.488ZM242.323 23.472V22.472C241.771 22.472 241.324 22.9188 241.323 23.4705L242.323 23.472ZM242.227 86.064L241.227 86.0625V86.064H242.227ZM240.595 89.424L241.202 90.2184L241.202 90.2184L240.595 89.424ZM232.627 14.928L232.093 14.0825C232.086 14.0869 232.079 14.0914 232.072 14.0959L232.627 14.928ZM272.371 14.832L272.736 13.9012L272.736 13.9012L272.371 14.832ZM277.555 17.52V18.52C277.997 18.52 278.387 18.2294 278.513 17.8055C278.639 17.3816 278.472 16.9251 278.102 16.683L277.555 17.52ZM277.459 17.52V16.52C277.026 16.52 276.642 16.7983 276.508 17.2097C276.374 17.621 276.519 18.0721 276.869 18.3274L277.459 17.52ZM281.299 22.32L280.387 22.7316L280.393 22.7429L281.299 22.32ZM277.459 86.256L278.049 87.0634L278.054 87.0596L277.459 86.256ZM272.275 89.136L272.622 90.0737C272.628 90.0715 272.634 90.0691 272.64 90.0668L272.275 89.136ZM248.467 88.752L247.626 89.2928C247.634 89.3065 247.644 89.32 247.653 89.3332L248.467 88.752ZM264.787 81.4C267.329 81.4 269.372 80.6736 270.592 78.9652L268.965 77.8028C268.265 78.7824 266.981 79.4 264.787 79.4V81.4ZM270.592 78.9652C271.675 77.4503 272.219 75.7427 272.219 73.872H270.219C270.219 75.3293 269.803 76.6297 268.965 77.8028L270.592 78.9652ZM272.219 73.872V29.904H270.219V73.872H272.219ZM272.219 29.904C272.219 28.0885 271.669 26.4145 270.592 24.9068L268.965 26.0692C269.808 27.2495 270.219 28.5195 270.219 29.904H272.219ZM270.592 24.9068C269.372 23.1984 267.329 22.472 264.787 22.472V24.472C266.981 24.472 268.265 25.0896 268.965 26.0692L270.592 24.9068ZM264.787 22.472H242.323V24.472H264.787V22.472ZM241.323 23.4705L241.227 86.0625L243.227 86.0655L243.323 23.4735L241.323 23.4705ZM241.227 86.064C241.227 87.1707 240.82 87.993 239.987 88.6296L241.202 90.2184C242.546 89.191 243.227 87.7733 243.227 86.064H241.227ZM239.987 88.6296C239.102 89.3067 237.982 89.672 236.563 89.672V91.672C238.344 91.672 239.912 91.2053 241.202 90.2184L239.987 88.6296ZM236.563 89.672C234.785 89.672 233.637 89.3062 232.946 88.7443C232.295 88.2145 231.899 87.3851 231.899 86.064H229.899C229.899 87.8149 230.447 89.2895 231.684 90.2957C232.881 91.2698 234.565 91.672 236.563 91.672V89.672ZM231.899 86.064V19.536H229.899V86.064H231.899ZM231.899 19.536C231.899 17.3416 232.453 16.2454 233.181 15.76L232.072 14.0959C230.496 15.1466 229.899 17.1224 229.899 19.536H231.899ZM233.161 15.7735C234.193 15.1215 235.441 14.776 236.947 14.776V12.776C235.124 12.776 233.492 13.1985 232.093 14.0825L233.161 15.7735ZM236.947 14.776H267.187V12.776H236.947V14.776ZM267.187 14.776C268.708 14.776 270.312 15.0974 272.005 15.7627L272.736 13.9012C270.846 13.1586 268.994 12.776 267.187 12.776V14.776ZM272.005 15.7627C273.731 16.441 275.399 17.3051 277.008 18.357L278.102 16.683C276.383 15.5589 274.594 14.631 272.736 13.9012L272.005 15.7627ZM277.555 16.52H277.459V18.52H277.555V16.52ZM276.869 18.3274C278.385 19.4356 279.558 20.8959 280.387 22.7316L282.21 21.9084C281.247 19.7761 279.86 18.0363 278.049 16.7126L276.869 18.3274ZM280.393 22.7429C281.215 24.5058 281.643 26.5962 281.643 29.04H283.643C283.643 26.3638 283.174 23.9742 282.205 21.8971L280.393 22.7429ZM281.643 29.04V74.64H283.643V29.04H281.643ZM281.643 74.64C281.643 79.5803 280.011 83.1207 276.864 85.4524L278.054 87.0596C281.818 84.2713 283.643 80.0677 283.643 74.64H281.643ZM276.869 85.4486C275.269 86.6176 273.616 87.5347 271.909 88.2052L272.64 90.0668C274.518 89.3293 276.32 88.3264 278.049 87.0634L276.869 85.4486ZM271.927 88.1983C270.299 88.8015 268.72 89.096 267.187 89.096V91.096C268.981 91.096 270.795 90.7505 272.622 90.0737L271.927 88.1983ZM267.187 89.096H251.059V91.096H267.187V89.096ZM251.059 89.096C250.298 89.096 249.735 88.8077 249.28 88.1708L247.653 89.3332C248.478 90.4883 249.643 91.096 251.059 91.096V89.096ZM249.308 88.2112C248.868 87.5271 248.603 86.5509 248.603 85.2H246.603C246.603 86.7931 246.913 88.1849 247.626 89.2928L249.308 88.2112ZM248.603 85.2C248.603 83.7203 248.924 82.7972 249.393 82.252C249.837 81.7357 250.552 81.4 251.731 81.4V79.4C250.158 79.4 248.809 79.8643 247.877 80.948C246.969 82.0028 246.603 83.4797 246.603 85.2H248.603ZM251.731 81.4H264.787V79.4H251.731V81.4Z" fill="#09309F" mask="url(#path-3-outside-2_220_7)"/>
<mask id="path-5-outside-3_220_7" maskUnits="userSpaceOnUse" x="291" y="3" width="40" height="42" fill="black">
<rect fill="white" x="291" y="3" width="40" height="42"/>
<path d="M300.656 43C299.664 43 298.72 42.872 297.824 42.616C296.928 42.328 296.064 41.928 295.232 41.416V41.464C293.664 40.472 292.88 38.648 292.88 35.992V33.64C292.88 32.328 293.104 31.192 293.552 30.232C294.032 29.24 294.688 28.456 295.52 27.88H295.472C296.272 27.336 297.12 26.936 298.016 26.68C298.912 26.392 299.776 26.248 300.608 26.248H311.216V21.784C311.216 20.984 310.96 20.264 310.448 19.624C309.968 18.952 309.136 18.616 307.952 18.616H302.336C301.12 18.616 300.272 18.92 299.792 19.528C299.344 20.104 299.12 20.792 299.12 21.592V21.976C299.12 23.64 298.224 24.472 296.432 24.472C294.64 24.472 293.744 23.64 293.744 21.976V21.544C293.744 20.232 293.968 19.128 294.416 18.232C294.896 17.336 295.536 16.584 296.336 15.976H296.288C297.12 15.432 297.984 14.984 298.88 14.632C299.808 14.28 300.688 14.104 301.52 14.104H308.816C309.616 14.104 310.464 14.28 311.36 14.632C312.288 14.984 313.152 15.432 313.952 15.976H313.904C314.736 16.584 315.376 17.384 315.824 18.376C316.272 19.336 316.496 20.456 316.496 21.736V40.984C316.496 42.52 315.616 43.288 313.856 43.288C313.504 43.288 313.168 43.272 312.848 43.24C312.56 43.208 312.288 43.128 312.032 43C311.808 42.84 311.616 42.632 311.456 42.376C311.328 42.088 311.264 41.72 311.264 41.272L311.216 30.76H301.52C300.816 30.76 300.272 30.84 299.888 31C299.504 31.16 299.2 31.416 298.976 31.768C298.72 32.312 298.528 32.744 298.4 33.064C298.304 33.352 298.256 33.688 298.256 34.072V35.944C298.256 36.776 298.496 37.416 298.976 37.864C299.488 38.28 300.352 38.488 301.568 38.488H306.944C308.128 38.488 308.72 39.24 308.72 40.744C308.72 41.384 308.576 41.928 308.288 42.376C308 42.792 307.552 43 306.944 43H300.656ZM328.129 40.984C328.129 42.52 327.249 43.288 325.489 43.288C323.697 43.288 322.801 42.52 322.801 40.984V16.216C322.801 14.68 323.697 13.912 325.489 13.912C327.249 13.912 328.129 14.68 328.129 16.216V40.984ZM329.137 7.864C329.137 8.888 328.785 9.752 328.081 10.456C327.377 11.16 326.513 11.512 325.489 11.512C324.465 11.512 323.585 11.16 322.849 10.456C322.145 9.752 321.793 8.888 321.793 7.864C321.793 6.808 322.145 5.928 322.849 5.224C323.585 4.52 324.465 4.168 325.489 4.168C326.513 4.168 327.377 4.52 328.081 5.224C328.785 5.928 329.137 6.808 329.137 7.864Z"/>
</mask>
<path d="M300.656 43C299.664 43 298.72 42.872 297.824 42.616C296.928 42.328 296.064 41.928 295.232 41.416V41.464C293.664 40.472 292.88 38.648 292.88 35.992V33.64C292.88 32.328 293.104 31.192 293.552 30.232C294.032 29.24 294.688 28.456 295.52 27.88H295.472C296.272 27.336 297.12 26.936 298.016 26.68C298.912 26.392 299.776 26.248 300.608 26.248H311.216V21.784C311.216 20.984 310.96 20.264 310.448 19.624C309.968 18.952 309.136 18.616 307.952 18.616H302.336C301.12 18.616 300.272 18.92 299.792 19.528C299.344 20.104 299.12 20.792 299.12 21.592V21.976C299.12 23.64 298.224 24.472 296.432 24.472C294.64 24.472 293.744 23.64 293.744 21.976V21.544C293.744 20.232 293.968 19.128 294.416 18.232C294.896 17.336 295.536 16.584 296.336 15.976H296.288C297.12 15.432 297.984 14.984 298.88 14.632C299.808 14.28 300.688 14.104 301.52 14.104H308.816C309.616 14.104 310.464 14.28 311.36 14.632C312.288 14.984 313.152 15.432 313.952 15.976H313.904C314.736 16.584 315.376 17.384 315.824 18.376C316.272 19.336 316.496 20.456 316.496 21.736V40.984C316.496 42.52 315.616 43.288 313.856 43.288C313.504 43.288 313.168 43.272 312.848 43.24C312.56 43.208 312.288 43.128 312.032 43C311.808 42.84 311.616 42.632 311.456 42.376C311.328 42.088 311.264 41.72 311.264 41.272L311.216 30.76H301.52C300.816 30.76 300.272 30.84 299.888 31C299.504 31.16 299.2 31.416 298.976 31.768C298.72 32.312 298.528 32.744 298.4 33.064C298.304 33.352 298.256 33.688 298.256 34.072V35.944C298.256 36.776 298.496 37.416 298.976 37.864C299.488 38.28 300.352 38.488 301.568 38.488H306.944C308.128 38.488 308.72 39.24 308.72 40.744C308.72 41.384 308.576 41.928 308.288 42.376C308 42.792 307.552 43 306.944 43H300.656ZM328.129 40.984C328.129 42.52 327.249 43.288 325.489 43.288C323.697 43.288 322.801 42.52 322.801 40.984V16.216C322.801 14.68 323.697 13.912 325.489 13.912C327.249 13.912 328.129 14.68 328.129 16.216V40.984ZM329.137 7.864C329.137 8.888 328.785 9.752 328.081 10.456C327.377 11.16 326.513 11.512 325.489 11.512C324.465 11.512 323.585 11.16 322.849 10.456C322.145 9.752 321.793 8.888 321.793 7.864C321.793 6.808 322.145 5.928 322.849 5.224C323.585 4.52 324.465 4.168 325.489 4.168C326.513 4.168 327.377 4.52 328.081 5.224C328.785 5.928 329.137 6.808 329.137 7.864Z" fill="black"/>
<path d="M297.824 42.616L297.518 43.568L297.534 43.573L297.549 43.5775L297.824 42.616ZM295.232 41.416L295.756 40.5643L294.232 39.6264V41.416H295.232ZM295.232 41.464L294.697 42.3091L296.232 43.28V41.464H295.232ZM293.552 30.232L292.652 29.7964L292.646 29.8091L293.552 30.232ZM295.52 27.88L296.089 28.7022L298.721 26.88H295.52V27.88ZM295.472 27.88L294.91 27.0531L292.223 28.88H295.472V27.88ZM298.016 26.68L298.291 27.6415L298.306 27.637L298.322 27.632L298.016 26.68ZM311.216 26.248V27.248H312.216V26.248H311.216ZM310.448 19.624L309.634 20.2052L309.65 20.2274L309.667 20.2487L310.448 19.624ZM299.792 19.528L299.007 18.9083L299.003 18.9141L299.792 19.528ZM294.416 18.232L293.535 17.7598L293.528 17.7722L293.522 17.7848L294.416 18.232ZM296.336 15.976L296.941 16.7722L299.304 14.976H296.336V15.976ZM296.288 15.976L295.741 15.139L292.931 16.976H296.288V15.976ZM298.88 14.632L298.525 13.6969L298.514 13.7012L298.88 14.632ZM311.36 14.632L310.994 15.5628L311.005 15.567L311.36 14.632ZM313.952 15.976V16.976H317.201L314.514 15.1491L313.952 15.976ZM313.904 15.976V14.976H310.841L313.314 16.7834L313.904 15.976ZM315.824 18.376L314.913 18.7876L314.918 18.7989L315.824 18.376ZM312.848 43.24L312.738 44.2339L312.748 44.235L312.848 43.24ZM312.032 43L311.451 43.8137L311.515 43.8593L311.585 43.8944L312.032 43ZM311.456 42.376L310.542 42.7821L310.571 42.8464L310.608 42.906L311.456 42.376ZM311.264 41.272L312.264 41.272L312.264 41.2674L311.264 41.272ZM311.216 30.76L312.216 30.7554L312.211 29.76H311.216V30.76ZM299.888 31L300.273 31.9231L300.273 31.9231L299.888 31ZM298.976 31.768L298.132 31.2311L298.098 31.2847L298.071 31.3422L298.976 31.768ZM298.4 33.064L297.472 32.6926L297.461 32.7199L297.451 32.7478L298.4 33.064ZM298.976 37.864L298.294 38.5951L298.319 38.6185L298.345 38.6401L298.976 37.864ZM308.288 42.376L309.11 42.9452L309.12 42.9311L309.129 42.9168L308.288 42.376ZM300.656 42C299.751 42 298.9 41.8834 298.099 41.6545L297.549 43.5775C298.54 43.8606 299.577 44 300.656 44V42ZM298.13 41.664C297.313 41.4015 296.522 41.0359 295.756 40.5643L294.708 42.2677C295.606 42.8201 296.543 43.2545 297.518 43.568L298.13 41.664ZM294.232 41.416V41.464H296.232V41.416H294.232ZM295.767 40.6189C294.602 39.8824 293.88 38.4663 293.88 35.992H291.88C291.88 38.8297 292.726 41.0616 294.697 42.3091L295.767 40.6189ZM293.88 35.992V33.64H291.88V35.992H293.88ZM293.88 33.64C293.88 32.4401 294.085 31.4548 294.458 30.6549L292.646 29.8091C292.123 30.9292 291.88 32.2159 291.88 33.64H293.88ZM294.452 30.6676C294.864 29.8166 295.411 29.1714 296.089 28.7022L294.951 27.0578C293.965 27.7406 293.2 28.6634 292.652 29.7964L294.452 30.6676ZM295.52 26.88H295.472V28.88H295.52V26.88ZM296.034 28.7069C296.75 28.2205 297.501 27.8672 298.291 27.6415L297.741 25.7185C296.739 26.0048 295.794 26.4515 294.91 27.0531L296.034 28.7069ZM298.322 27.632C299.132 27.3717 299.892 27.248 300.608 27.248V25.248C299.66 25.248 298.692 25.4123 297.71 25.728L298.322 27.632ZM300.608 27.248H311.216V25.248H300.608V27.248ZM312.216 26.248V21.784H310.216V26.248H312.216ZM312.216 21.784C312.216 20.751 311.879 19.8119 311.229 18.9993L309.667 20.2487C310.041 20.7161 310.216 21.217 310.216 21.784H312.216ZM311.262 19.0428C310.522 18.0064 309.31 17.616 307.952 17.616V19.616C308.962 19.616 309.415 19.8976 309.634 20.2052L311.262 19.0428ZM307.952 17.616H302.336V19.616H307.952V17.616ZM302.336 17.616C300.99 17.616 299.764 17.9496 299.007 18.9084L300.577 20.1476C300.78 19.8904 301.25 19.616 302.336 19.616V17.616ZM299.003 18.9141C298.405 19.6827 298.12 20.5924 298.12 21.592H300.12C300.12 20.9916 300.283 20.5253 300.581 20.1419L299.003 18.9141ZM298.12 21.592V21.976H300.12V21.592H298.12ZM298.12 21.976C298.12 22.6341 297.946 22.9492 297.768 23.1152C297.575 23.2942 297.192 23.472 296.432 23.472V25.472C297.464 25.472 298.425 25.2338 299.128 24.5808C299.846 23.9148 300.12 22.9819 300.12 21.976H298.12ZM296.432 23.472C295.672 23.472 295.289 23.2942 295.096 23.1152C294.918 22.9492 294.744 22.6341 294.744 21.976H292.744C292.744 22.9819 293.018 23.9148 293.736 24.5808C294.439 25.2338 295.4 25.472 296.432 25.472V23.472ZM294.744 21.976V21.544H292.744V21.976H294.744ZM294.744 21.544C294.744 20.341 294.95 19.4002 295.31 18.6792L293.522 17.7848C292.986 18.8558 292.744 20.123 292.744 21.544H294.744ZM295.297 18.7042C295.71 17.9333 296.257 17.2922 296.941 16.7722L295.731 15.1798C294.815 15.8758 294.082 16.7387 293.535 17.7598L295.297 18.7042ZM296.336 14.976H296.288V16.976H296.336V14.976ZM296.835 16.813C297.612 16.3051 298.415 15.889 299.246 15.5628L298.514 13.7012C297.553 14.079 296.628 14.5589 295.741 15.139L296.835 16.813ZM299.235 15.567C300.071 15.2499 300.83 15.104 301.52 15.104V13.104C300.546 13.104 299.545 13.3101 298.525 13.697L299.235 15.567ZM301.52 15.104H308.816V13.104H301.52V15.104ZM308.816 15.104C309.468 15.104 310.192 15.2474 310.994 15.5628L311.726 13.7012C310.736 13.3126 309.764 13.104 308.816 13.104V15.104ZM311.005 15.567C311.862 15.8919 312.656 16.3041 313.39 16.8029L314.514 15.1491C313.648 14.5599 312.714 14.076 311.715 13.697L311.005 15.567ZM313.952 14.976H313.904V16.976H313.952V14.976ZM313.314 16.7834C313.999 17.2836 314.532 17.9439 314.913 18.7876L316.735 17.9644C316.22 16.8241 315.473 15.8844 314.494 15.1686L313.314 16.7834ZM314.918 18.7989C315.293 19.6018 315.496 20.5722 315.496 21.736H317.496C317.496 20.3398 317.251 19.0702 316.73 17.9531L314.918 18.7989ZM315.496 21.736V40.984H317.496V21.736H315.496ZM315.496 40.984C315.496 41.5598 315.337 41.8199 315.178 41.9586C314.994 42.12 314.613 42.288 313.856 42.288V44.288C314.859 44.288 315.798 44.072 316.494 43.4654C317.215 42.8361 317.496 41.9442 317.496 40.984H315.496ZM313.856 42.288C313.534 42.288 313.232 42.2734 312.948 42.245L312.748 44.235C313.104 44.2706 313.474 44.288 313.856 44.288V42.288ZM312.958 42.2461C312.786 42.227 312.628 42.1802 312.479 42.1056L311.585 43.8944C311.948 44.0758 312.334 44.189 312.738 44.2339L312.958 42.2461ZM312.613 42.1863C312.506 42.1095 312.401 42.0016 312.304 41.846L310.608 42.906C310.831 43.2624 311.11 43.5705 311.451 43.8137L312.613 42.1863ZM312.37 41.9699C312.317 41.8517 312.264 41.6348 312.264 41.272H310.264C310.264 41.8052 310.339 42.3243 310.542 42.7821L312.37 41.9699ZM312.264 41.2674L312.216 30.7554L310.216 30.7646L310.264 41.2766L312.264 41.2674ZM311.216 29.76H301.52V31.76H311.216V29.76ZM301.52 29.76C300.763 29.76 300.065 29.8427 299.503 30.0769L300.273 31.9231C300.479 31.8373 300.869 31.76 301.52 31.76V29.76ZM299.503 30.0769C298.93 30.3159 298.466 30.707 298.132 31.2311L299.82 32.3049C299.934 32.125 300.078 32.0041 300.273 31.9231L299.503 30.0769ZM298.071 31.3422C297.812 31.8931 297.61 32.3456 297.472 32.6926L299.328 33.4354C299.446 33.1424 299.628 32.7309 299.881 32.1938L298.071 31.3422ZM297.451 32.7478C297.314 33.1606 297.256 33.6077 297.256 34.072H299.256C299.256 33.7683 299.294 33.5434 299.349 33.3802L297.451 32.7478ZM297.256 34.072V35.944H299.256V34.072H297.256ZM297.256 35.944C297.256 36.9745 297.56 37.9102 298.294 38.5951L299.658 37.1329C299.432 36.9218 299.256 36.5775 299.256 35.944H297.256ZM298.345 38.6401C299.134 39.2806 300.292 39.488 301.568 39.488V37.488C300.412 37.488 299.842 37.2794 299.607 37.0879L298.345 38.6401ZM301.568 39.488H306.944V37.488H301.568V39.488ZM306.944 39.488C307.31 39.488 307.428 39.5921 307.49 39.6706C307.588 39.7946 307.72 40.0961 307.72 40.744H309.72C309.72 39.8879 309.556 39.0614 309.062 38.4334C308.532 37.7599 307.762 37.488 306.944 37.488V39.488ZM307.72 40.744C307.72 41.2313 307.612 41.5785 307.447 41.8352L309.129 42.9168C309.54 42.2775 309.72 41.5367 309.72 40.744H307.72ZM307.466 41.8068C307.404 41.8964 307.299 42 306.944 42V44C307.805 44 308.596 43.6876 309.11 42.9452L307.466 41.8068ZM306.944 42H300.656V44H306.944V42ZM322.849 10.456L322.142 11.1631L322.15 11.171L322.158 11.1786L322.849 10.456ZM322.849 5.224L322.158 4.50135L322.15 4.50903L322.142 4.51689L322.849 5.224ZM328.081 5.224L328.788 4.51689L328.788 4.51689L328.081 5.224ZM327.129 40.984C327.129 41.5598 326.97 41.8199 326.811 41.9586C326.626 42.12 326.246 42.288 325.489 42.288V44.288C326.492 44.288 327.431 44.072 328.126 43.4654C328.848 42.8361 329.129 41.9442 329.129 40.984H327.129ZM325.489 42.288C324.713 42.288 324.317 42.1184 324.124 41.9527C323.96 41.8124 323.801 41.5541 323.801 40.984H321.801C321.801 41.9499 322.09 42.8436 322.822 43.4713C323.525 44.0736 324.473 44.288 325.489 44.288V42.288ZM323.801 40.984V16.216H321.801V40.984H323.801ZM323.801 16.216C323.801 15.6459 323.96 15.3876 324.124 15.2473C324.317 15.0816 324.713 14.912 325.489 14.912V12.912C324.473 12.912 323.525 13.1264 322.822 13.7287C322.09 14.3564 321.801 15.2501 321.801 16.216H323.801ZM325.489 14.912C326.246 14.912 326.626 15.08 326.811 15.2414C326.97 15.3801 327.129 15.6402 327.129 16.216H329.129C329.129 15.2558 328.848 14.3639 328.126 13.7346C327.431 13.128 326.492 12.912 325.489 12.912V14.912ZM327.129 16.216V40.984H329.129V16.216H327.129ZM328.137 7.864C328.137 8.63124 327.884 9.23833 327.374 9.74889L328.788 11.1631C329.685 10.2657 330.137 9.14475 330.137 7.864H328.137ZM327.374 9.74889C326.863 10.2595 326.256 10.512 325.489 10.512V12.512C326.77 12.512 327.891 12.0605 328.788 11.1631L327.374 9.74889ZM325.489 10.512C324.721 10.512 324.089 10.2583 323.54 9.73336L322.158 11.1786C323.081 12.0617 324.209 12.512 325.489 12.512V10.512ZM323.556 9.74889C323.045 9.23833 322.793 8.63124 322.793 7.864H320.793C320.793 9.14475 321.244 10.2657 322.142 11.1631L323.556 9.74889ZM322.793 7.864C322.793 7.05536 323.052 6.43531 323.556 5.9311L322.142 4.51689C321.238 5.42069 320.793 6.56064 320.793 7.864H322.793ZM323.54 5.94664C324.089 5.42172 324.721 5.168 325.489 5.168V3.168C324.209 3.168 323.081 3.61827 322.158 4.50135L323.54 5.94664ZM325.489 5.168C326.256 5.168 326.863 5.42054 327.374 5.9311L328.788 4.51689C327.891 3.61945 326.77 3.168 325.489 3.168V5.168ZM327.374 5.9311C327.878 6.43531 328.137 7.05536 328.137 7.864H330.137C330.137 6.56064 329.692 5.42069 328.788 4.51689L327.374 5.9311Z" fill="#DDDBEC" mask="url(#path-5-outside-3_220_7)"/>
</g>
<defs>
<clipPath id="clip0_220_7">
<rect width="363" height="100" fill="white"/>
</clipPath>
</defs>
</svg>
