<svg width="100" height="100" viewBox="0 0 100 100" fill="none" xmlns="http://www.w3.org/2000/svg">
<circle cx="50" cy="50" r="46.5" stroke="#7964F7" stroke-opacity="0.5" stroke-width="7"/>
<circle cx="50" cy="50" r="37.5" stroke="#7964F7" stroke-opacity="0.5" stroke-width="5"/>
<mask id="path-3-outside-1_269_203" maskUnits="userSpaceOnUse" x="49" y="27" width="37" height="44" fill="black">
<rect fill="white" x="49" y="27" width="37" height="44"/>
<path d="M51.7557 69V29.7273H56.5114V49.2102H56.9716L74.6136 29.7273H80.8267L64.3352 47.446L80.8267 69H75.0739L61.4205 50.7443L56.5114 56.267V69H51.7557Z"/>
</mask>
<path d="M51.7557 69V29.7273H56.5114V49.2102H56.9716L74.6136 29.7273H80.8267L64.3352 47.446L80.8267 69H75.0739L61.4205 50.7443L56.5114 56.267V69H51.7557Z" fill="#7964F7" fill-opacity="0.5"/>
<path d="M51.7557 69H49.7557V71H51.7557V69ZM51.7557 29.7273V27.7273H49.7557V29.7273H51.7557ZM56.5114 29.7273H58.5114V27.7273H56.5114V29.7273ZM56.5114 49.2102H54.5114V51.2102H56.5114V49.2102ZM56.9716 49.2102V51.2102H57.8587L58.4541 50.5527L56.9716 49.2102ZM74.6136 29.7273V27.7273H73.7265L73.1311 28.3848L74.6136 29.7273ZM80.8267 29.7273L82.2907 31.0899L85.4204 27.7273H80.8267V29.7273ZM64.3352 47.446L62.8712 46.0834L61.7204 47.3199L62.7468 48.6613L64.3352 47.446ZM80.8267 69V71H84.8752L82.4151 67.7847L80.8267 69ZM75.0739 69L73.4723 70.1978L74.0722 71H75.0739V69ZM61.4205 50.7443L63.0221 49.5465L61.5541 47.5836L59.9256 49.4156L61.4205 50.7443ZM56.5114 56.267L55.0165 54.9383L54.5114 55.5066V56.267H56.5114ZM56.5114 69V71H58.5114V69H56.5114ZM53.7557 69V29.7273H49.7557V69H53.7557ZM51.7557 31.7273H56.5114V27.7273H51.7557V31.7273ZM54.5114 29.7273V49.2102H58.5114V29.7273H54.5114ZM56.5114 51.2102H56.9716V47.2102H56.5114V51.2102ZM58.4541 50.5527L76.0962 31.0697L73.1311 28.3848L55.4891 47.8678L58.4541 50.5527ZM74.6136 31.7273H80.8267V27.7273H74.6136V31.7273ZM79.3627 28.3647L62.8712 46.0834L65.7992 48.8086L82.2907 31.0899L79.3627 28.3647ZM62.7468 48.6613L79.2383 70.2153L82.4151 67.7847L65.9236 46.2307L62.7468 48.6613ZM80.8267 67H75.0739V71H80.8267V67ZM76.6755 67.8022L63.0221 49.5465L59.8188 51.9422L73.4723 70.1978L76.6755 67.8022ZM59.9256 49.4156L55.0165 54.9383L58.0062 57.5958L62.9153 52.073L59.9256 49.4156ZM54.5114 56.267V69H58.5114V56.267H54.5114ZM56.5114 67H51.7557V71H56.5114V67Z" fill="#B5AAF5" fill-opacity="0.5" mask="url(#path-3-outside-1_269_203)"/>
<mask id="path-5-outside-2_269_203" maskUnits="userSpaceOnUse" x="19" y="27" width="29" height="44" fill="black">
<rect fill="white" x="19" y="27" width="29" height="44"/>
<path d="M21.7557 69V29.7273H45.304V33.946H26.5114V47.2159H43.5398V51.4347H26.5114V69H21.7557Z"/>
</mask>
<path d="M21.7557 69V29.7273H45.304V33.946H26.5114V47.2159H43.5398V51.4347H26.5114V69H21.7557Z" fill="#7964F7" fill-opacity="0.5"/>
<path d="M21.7557 69H19.7557V71H21.7557V69ZM21.7557 29.7273V27.7273H19.7557V29.7273H21.7557ZM45.304 29.7273H47.304V27.7273H45.304V29.7273ZM45.304 33.946V35.946H47.304V33.946H45.304ZM26.5114 33.946V31.946H24.5114V33.946H26.5114ZM26.5114 47.2159H24.5114V49.2159H26.5114V47.2159ZM43.5398 47.2159H45.5398V45.2159H43.5398V47.2159ZM43.5398 51.4347V53.4347H45.5398V51.4347H43.5398ZM26.5114 51.4347V49.4347H24.5114V51.4347H26.5114ZM26.5114 69V71H28.5114V69H26.5114ZM23.7557 69V29.7273H19.7557V69H23.7557ZM21.7557 31.7273H45.304V27.7273H21.7557V31.7273ZM43.304 29.7273V33.946H47.304V29.7273H43.304ZM45.304 31.946H26.5114V35.946H45.304V31.946ZM24.5114 33.946V47.2159H28.5114V33.946H24.5114ZM26.5114 49.2159H43.5398V45.2159H26.5114V49.2159ZM41.5398 47.2159V51.4347H45.5398V47.2159H41.5398ZM43.5398 49.4347H26.5114V53.4347H43.5398V49.4347ZM24.5114 51.4347V69H28.5114V51.4347H24.5114ZM26.5114 67H21.7557V71H26.5114V67Z" fill="#B5AAF5" mask="url(#path-5-outside-2_269_203)"/>
</svg>
